<?xml version="1.0" encoding="us-ascii" standalone="no"?><svg xmlns="http://www.w3.org/2000/svg" xmlns:xlink="http://www.w3.org/1999/xlink" contentStyleType="text/css" height="766px" preserveAspectRatio="none" style="width:1794px;height:766px;background:#FFFFFF;" version="1.1" viewBox="0 0 1794 766" width="1794px" zoomAndPan="magnify"><defs/><g><ellipse cx="429.4844" cy="20" fill="#222222" rx="10" ry="10" style="stroke:#222222;stroke-width:1.0;"/><rect fill="#F1F1F1" height="33.9688" rx="12.5" ry="12.5" style="stroke:#181818;stroke-width:0.5;" width="182" x="338.4844" y="50"/><text fill="#000000" font-family="sans-serif" font-size="12" lengthAdjust="spacing" textLength="162" x="348.4844" y="71.1387">User interacts with System</text><polygon fill="#F1F1F1" points="368.9844,103.9688,489.9844,103.9688,501.9844,115.9688,489.9844,127.9688,368.9844,127.9688,356.9844,115.9688,368.9844,103.9688" style="stroke:#181818;stroke-width:0.5;"/><text fill="#000000" font-family="sans-serif" font-size="11" lengthAdjust="spacing" textLength="121" x="368.9844" y="119.7769">View Real-Time Data</text><text fill="#000000" font-family="sans-serif" font-size="11" lengthAdjust="spacing" textLength="21" x="335.9844" y="113.3745">yes</text><text fill="#000000" font-family="sans-serif" font-size="11" lengthAdjust="spacing" textLength="14" x="501.9844" y="113.3745">no</text><rect fill="#F1F1F1" height="33.9688" rx="12.5" ry="12.5" style="stroke:#181818;stroke-width:0.5;" width="185" x="63" y="137.9688"/><text fill="#000000" font-family="sans-serif" font-size="12" lengthAdjust="spacing" textLength="165" x="73" y="159.1074">System processes request</text><rect fill="#F1F1F1" height="33.9688" rx="12.5" ry="12.5" style="stroke:#181818;stroke-width:0.5;" width="289" x="11" y="206.9375"/><text fill="#000000" font-family="sans-serif" font-size="12" lengthAdjust="spacing" textLength="269" x="21" y="228.0762">System retrieves real-time data from Server</text><rect fill="#F1F1F1" height="33.9688" rx="12.5" ry="12.5" style="stroke:#181818;stroke-width:0.5;" width="202" x="54.5" y="275.9063"/><text fill="#000000" font-family="sans-serif" font-size="12" lengthAdjust="spacing" textLength="182" x="64.5" y="297.0449">System presents data to User</text><polygon fill="#F1F1F1" points="650.4688,137.9688,756.4688,137.9688,768.4688,149.9688,756.4688,161.9688,650.4688,161.9688,638.4688,149.9688,650.4688,137.9688" style="stroke:#181818;stroke-width:0.5;"/><text fill="#000000" font-family="sans-serif" font-size="11" lengthAdjust="spacing" textLength="106" x="650.4688" y="153.7769">Control Appliances</text><text fill="#000000" font-family="sans-serif" font-size="11" lengthAdjust="spacing" textLength="21" x="617.4688" y="147.3745">yes</text><rect fill="#F1F1F1" height="33.9688" rx="12.5" ry="12.5" style="stroke:#181818;stroke-width:0.5;" width="185" x="359" y="171.9688"/><text fill="#000000" font-family="sans-serif" font-size="12" lengthAdjust="spacing" textLength="165" x="369" y="193.1074">System processes request</text><rect fill="#F1F1F1" height="33.9688" rx="12.5" ry="12.5" style="stroke:#181818;stroke-width:0.5;" width="231" x="336" y="240.9375"/><text fill="#000000" font-family="sans-serif" font-size="12" lengthAdjust="spacing" textLength="211" x="346" y="262.0762">User configures appliance settings</text><rect fill="#F1F1F1" height="33.9688" rx="12.5" ry="12.5" style="stroke:#181818;stroke-width:0.5;" width="283" x="310" y="309.9063"/><text fill="#000000" font-family="sans-serif" font-size="12" lengthAdjust="spacing" textLength="263" x="320" y="331.0449">System sends control commands to Server</text><polygon fill="#F1F1F1" points="917.4375,171.9688,993.4375,171.9688,1005.4375,183.9688,993.4375,195.9688,917.4375,195.9688,905.4375,183.9688,917.4375,171.9688" style="stroke:#181818;stroke-width:0.5;"/><text fill="#000000" font-family="sans-serif" font-size="11" lengthAdjust="spacing" textLength="76" x="917.4375" y="187.7769">Set Warnings</text><text fill="#000000" font-family="sans-serif" font-size="11" lengthAdjust="spacing" textLength="21" x="884.4375" y="181.3745">yes</text><rect fill="#F1F1F1" height="33.9688" rx="12.5" ry="12.5" style="stroke:#181818;stroke-width:0.5;" width="185" x="628.5" y="205.9688"/><text fill="#000000" font-family="sans-serif" font-size="12" lengthAdjust="spacing" textLength="165" x="638.5" y="227.1074">System processes request</text><rect fill="#F1F1F1" height="33.9688" rx="12.5" ry="12.5" style="stroke:#181818;stroke-width:0.5;" width="236" x="603" y="274.9375"/><text fill="#000000" font-family="sans-serif" font-size="12" lengthAdjust="spacing" textLength="216" x="613" y="296.0762">User configures warning thresholds</text><rect fill="#F1F1F1" height="33.9688" rx="12.5" ry="12.5" style="stroke:#181818;stroke-width:0.5;" width="219" x="611.5" y="343.9063"/><text fill="#000000" font-family="sans-serif" font-size="12" lengthAdjust="spacing" textLength="199" x="621.5" y="365.0449">System sends settings to Server</text><polygon fill="#F1F1F1" points="1129.875,205.9688,1249.875,205.9688,1261.875,217.9688,1249.875,229.9688,1129.875,229.9688,1117.875,217.9688,1129.875,205.9688" style="stroke:#181818;stroke-width:0.5;"/><text fill="#000000" font-family="sans-serif" font-size="11" lengthAdjust="spacing" textLength="120" x="1129.875" y="221.7769">Receive Notifications</text><text fill="#000000" font-family="sans-serif" font-size="11" lengthAdjust="spacing" textLength="21" x="1096.875" y="215.3745">yes</text><rect fill="#F1F1F1" height="33.9688" rx="12.5" ry="12.5" style="stroke:#181818;stroke-width:0.5;" width="210" x="859.5" y="239.9688"/><text fill="#000000" font-family="sans-serif" font-size="12" lengthAdjust="spacing" textLength="190" x="869.5" y="261.1074">System monitors real-time data</text><rect fill="#F1F1F1" height="33.9688" rx="12.5" ry="12.5" style="stroke:#181818;stroke-width:0.5;" width="231" x="849" y="308.9375"/><text fill="#000000" font-family="sans-serif" font-size="12" lengthAdjust="spacing" textLength="211" x="859" y="330.0762">System sends notifications to User</text><polygon fill="#F1F1F1" points="1389.75,239.9688,1480.75,239.9688,1492.75,251.9688,1480.75,263.9688,1389.75,263.9688,1377.75,251.9688,1389.75,239.9688" style="stroke:#181818;stroke-width:0.5;"/><text fill="#000000" font-family="sans-serif" font-size="11" lengthAdjust="spacing" textLength="91" x="1389.75" y="255.7769">Access Analysis</text><text fill="#000000" font-family="sans-serif" font-size="11" lengthAdjust="spacing" textLength="21" x="1356.75" y="249.3745">yes</text><rect fill="#F1F1F1" height="33.9688" rx="12.5" ry="12.5" style="stroke:#181818;stroke-width:0.5;" width="185" x="1139" y="273.9688"/><text fill="#000000" font-family="sans-serif" font-size="12" lengthAdjust="spacing" textLength="165" x="1149" y="295.1074">System processes request</text><rect fill="#F1F1F1" height="33.9688" rx="12.5" ry="12.5" style="stroke:#181818;stroke-width:0.5;" width="283" x="1090" y="342.9375"/><text fill="#000000" font-family="sans-serif" font-size="12" lengthAdjust="spacing" textLength="263" x="1100" y="364.0762">System retrieves analysis data from Server</text><rect fill="#F1F1F1" height="33.9688" rx="12.5" ry="12.5" style="stroke:#181818;stroke-width:0.5;" width="224" x="1119.5" y="411.9063"/><text fill="#000000" font-family="sans-serif" font-size="12" lengthAdjust="spacing" textLength="204" x="1129.5" y="433.0449">System presents analysis to User</text><polygon fill="#F1F1F1" points="1609.5,273.9688,1668.5,273.9688,1680.5,285.9688,1668.5,297.9688,1609.5,297.9688,1597.5,285.9688,1609.5,273.9688" style="stroke:#181818;stroke-width:0.5;"/><text fill="#000000" font-family="sans-serif" font-size="11" lengthAdjust="spacing" textLength="59" x="1609.5" y="289.7769">Predict Bill</text><text fill="#000000" font-family="sans-serif" font-size="11" lengthAdjust="spacing" textLength="21" x="1576.5" y="283.3745">yes</text><text fill="#000000" font-family="sans-serif" font-size="11" lengthAdjust="spacing" textLength="14" x="1680.5" y="283.3745">no</text><rect fill="#F1F1F1" height="33.9688" rx="12.5" ry="12.5" style="stroke:#181818;stroke-width:0.5;" width="185" x="1446.5" y="307.9688"/><text fill="#000000" font-family="sans-serif" font-size="12" lengthAdjust="spacing" textLength="165" x="1456.5" y="329.1074">System processes request</text><rect fill="#F1F1F1" height="33.9688" rx="12.5" ry="12.5" style="stroke:#181818;stroke-width:0.5;" width="272" x="1403" y="376.9375"/><text fill="#000000" font-family="sans-serif" font-size="12" lengthAdjust="spacing" textLength="252" x="1413" y="398.0762">System retrieves usage data from Server</text><rect fill="#F1F1F1" height="33.9688" rx="12.5" ry="12.5" style="stroke:#181818;stroke-width:0.5;" width="211" x="1433.5" y="445.9063"/><text fill="#000000" font-family="sans-serif" font-size="12" lengthAdjust="spacing" textLength="191" x="1443.5" y="467.0449">System performs bill prediction</text><rect fill="#F1F1F1" height="33.9688" rx="12.5" ry="12.5" style="stroke:#181818;stroke-width:0.5;" width="237" x="1420.5" y="499.875"/><text fill="#000000" font-family="sans-serif" font-size="12" lengthAdjust="spacing" textLength="217" x="1430.5" y="521.0137">System presents prediction to User</text><rect fill="#F1F1F1" height="33.9688" rx="12.5" ry="12.5" style="stroke:#181818;stroke-width:0.5;" width="88" x="1695" y="307.9688"/><text fill="#000000" font-family="sans-serif" font-size="12" lengthAdjust="spacing" textLength="68" x="1705" y="329.1074">End activity</text><polygon fill="#F1F1F1" points="1639,539.8438,1651,551.8438,1639,563.8438,1627,551.8438,1639,539.8438" style="stroke:#181818;stroke-width:0.5;"/><polygon fill="#F1F1F1" points="1435.25,569.8438,1447.25,581.8438,1435.25,593.8438,1423.25,581.8438,1435.25,569.8438" style="stroke:#181818;stroke-width:0.5;"/><polygon fill="#F1F1F1" points="1189.875,599.8438,1201.875,611.8438,1189.875,623.8438,1177.875,611.8438,1189.875,599.8438" style="stroke:#181818;stroke-width:0.5;"/><polygon fill="#F1F1F1" points="955.4375,629.8438,967.4375,641.8438,955.4375,653.8438,943.4375,641.8438,955.4375,629.8438" style="stroke:#181818;stroke-width:0.5;"/><polygon fill="#F1F1F1" points="703.4688,659.8438,715.4688,671.8438,703.4688,683.8438,691.4688,671.8438,703.4688,659.8438" style="stroke:#181818;stroke-width:0.5;"/><polygon fill="#F1F1F1" points="429.4844,689.8438,441.4844,701.8438,429.4844,713.8438,417.4844,701.8438,429.4844,689.8438" style="stroke:#181818;stroke-width:0.5;"/><ellipse cx="429.4844" cy="744.8438" fill="none" rx="11" ry="11" style="stroke:#222222;stroke-width:1.0;"/><ellipse cx="429.4844" cy="744.8438" fill="#222222" rx="6" ry="6" style="stroke:#222222;stroke-width:1.0;"/><line style="stroke:#181818;stroke-width:1.0;" x1="429.4844" x2="429.4844" y1="30" y2="50"/><polygon fill="#181818" points="425.4844,40,429.4844,50,433.4844,40,429.4844,44" style="stroke:#181818;stroke-width:1.0;"/><line style="stroke:#181818;stroke-width:1.0;" x1="155.5" x2="155.5" y1="171.9375" y2="206.9375"/><polygon fill="#181818" points="151.5,196.9375,155.5,206.9375,159.5,196.9375,155.5,200.9375" style="stroke:#181818;stroke-width:1.0;"/><line style="stroke:#181818;stroke-width:1.0;" x1="155.5" x2="155.5" y1="240.9063" y2="275.9063"/><polygon fill="#181818" points="151.5,265.9063,155.5,275.9063,159.5,265.9063,155.5,269.9063" style="stroke:#181818;stroke-width:1.0;"/><line style="stroke:#181818;stroke-width:1.0;" x1="451.5" x2="451.5" y1="205.9375" y2="240.9375"/><polygon fill="#181818" points="447.5,230.9375,451.5,240.9375,455.5,230.9375,451.5,234.9375" style="stroke:#181818;stroke-width:1.0;"/><line style="stroke:#181818;stroke-width:1.0;" x1="451.5" x2="451.5" y1="274.9063" y2="309.9063"/><polygon fill="#181818" points="447.5,299.9063,451.5,309.9063,455.5,299.9063,451.5,303.9063" style="stroke:#181818;stroke-width:1.0;"/><line style="stroke:#181818;stroke-width:1.0;" x1="721" x2="721" y1="239.9375" y2="274.9375"/><polygon fill="#181818" points="717,264.9375,721,274.9375,725,264.9375,721,268.9375" style="stroke:#181818;stroke-width:1.0;"/><line style="stroke:#181818;stroke-width:1.0;" x1="721" x2="721" y1="308.9063" y2="343.9063"/><polygon fill="#181818" points="717,333.9063,721,343.9063,725,333.9063,721,337.9063" style="stroke:#181818;stroke-width:1.0;"/><line style="stroke:#181818;stroke-width:1.0;" x1="964.5" x2="964.5" y1="273.9375" y2="308.9375"/><polygon fill="#181818" points="960.5,298.9375,964.5,308.9375,968.5,298.9375,964.5,302.9375" style="stroke:#181818;stroke-width:1.0;"/><line style="stroke:#181818;stroke-width:1.0;" x1="1231.5" x2="1231.5" y1="307.9375" y2="342.9375"/><polygon fill="#181818" points="1227.5,332.9375,1231.5,342.9375,1235.5,332.9375,1231.5,336.9375" style="stroke:#181818;stroke-width:1.0;"/><line style="stroke:#181818;stroke-width:1.0;" x1="1231.5" x2="1231.5" y1="376.9063" y2="411.9063"/><polygon fill="#181818" points="1227.5,401.9063,1231.5,411.9063,1235.5,401.9063,1231.5,405.9063" style="stroke:#181818;stroke-width:1.0;"/><line style="stroke:#181818;stroke-width:1.0;" x1="1539" x2="1539" y1="341.9375" y2="376.9375"/><polygon fill="#181818" points="1535,366.9375,1539,376.9375,1543,366.9375,1539,370.9375" style="stroke:#181818;stroke-width:1.0;"/><line style="stroke:#181818;stroke-width:1.0;" x1="1539" x2="1539" y1="410.9063" y2="445.9063"/><polygon fill="#181818" points="1535,435.9063,1539,445.9063,1543,435.9063,1539,439.9063" style="stroke:#181818;stroke-width:1.0;"/><line style="stroke:#181818;stroke-width:1.0;" x1="1539" x2="1539" y1="479.875" y2="499.875"/><polygon fill="#181818" points="1535,489.875,1539,499.875,1543,489.875,1539,493.875" style="stroke:#181818;stroke-width:1.0;"/><line style="stroke:#181818;stroke-width:1.0;" x1="1597.5" x2="1539" y1="285.9688" y2="285.9688"/><line style="stroke:#181818;stroke-width:1.0;" x1="1539" x2="1539" y1="285.9688" y2="307.9688"/><polygon fill="#181818" points="1535,297.9688,1539,307.9688,1543,297.9688,1539,301.9688" style="stroke:#181818;stroke-width:1.0;"/><line style="stroke:#181818;stroke-width:1.0;" x1="1680.5" x2="1739" y1="285.9688" y2="285.9688"/><line style="stroke:#181818;stroke-width:1.0;" x1="1739" x2="1739" y1="285.9688" y2="307.9688"/><polygon fill="#181818" points="1735,297.9688,1739,307.9688,1743,297.9688,1739,301.9688" style="stroke:#181818;stroke-width:1.0;"/><line style="stroke:#181818;stroke-width:1.0;" x1="1539" x2="1539" y1="533.8438" y2="551.8438"/><line style="stroke:#181818;stroke-width:1.0;" x1="1539" x2="1627" y1="551.8438" y2="551.8438"/><polygon fill="#181818" points="1617,547.8438,1627,551.8438,1617,555.8438,1621,551.8438" style="stroke:#181818;stroke-width:1.0;"/><line style="stroke:#181818;stroke-width:1.0;" x1="1739" x2="1739" y1="341.9375" y2="551.8438"/><line style="stroke:#181818;stroke-width:1.0;" x1="1739" x2="1651" y1="551.8438" y2="551.8438"/><polygon fill="#181818" points="1661,547.8438,1651,551.8438,1661,555.8438,1657,551.8438" style="stroke:#181818;stroke-width:1.0;"/><line style="stroke:#181818;stroke-width:1.0;" x1="1377.75" x2="1231.5" y1="251.9688" y2="251.9688"/><line style="stroke:#181818;stroke-width:1.0;" x1="1231.5" x2="1231.5" y1="251.9688" y2="273.9688"/><polygon fill="#181818" points="1227.5,263.9688,1231.5,273.9688,1235.5,263.9688,1231.5,267.9688" style="stroke:#181818;stroke-width:1.0;"/><line style="stroke:#181818;stroke-width:1.0;" x1="1492.75" x2="1639" y1="251.9688" y2="251.9688"/><line style="stroke:#181818;stroke-width:1.0;" x1="1639" x2="1639" y1="251.9688" y2="273.9688"/><polygon fill="#181818" points="1635,263.9688,1639,273.9688,1643,263.9688,1639,267.9688" style="stroke:#181818;stroke-width:1.0;"/><line style="stroke:#181818;stroke-width:1.0;" x1="1231.5" x2="1231.5" y1="445.875" y2="581.8438"/><line style="stroke:#181818;stroke-width:1.0;" x1="1231.5" x2="1423.25" y1="581.8438" y2="581.8438"/><polygon fill="#181818" points="1413.25,577.8438,1423.25,581.8438,1413.25,585.8438,1417.25,581.8438" style="stroke:#181818;stroke-width:1.0;"/><line style="stroke:#181818;stroke-width:1.0;" x1="1639" x2="1639" y1="563.8438" y2="581.8438"/><line style="stroke:#181818;stroke-width:1.0;" x1="1639" x2="1447.25" y1="581.8438" y2="581.8438"/><polygon fill="#181818" points="1457.25,577.8438,1447.25,581.8438,1457.25,585.8438,1453.25,581.8438" style="stroke:#181818;stroke-width:1.0;"/><line style="stroke:#181818;stroke-width:1.0;" x1="1117.875" x2="964.5" y1="217.9688" y2="217.9688"/><line style="stroke:#181818;stroke-width:1.0;" x1="964.5" x2="964.5" y1="217.9688" y2="239.9688"/><polygon fill="#181818" points="960.5,229.9688,964.5,239.9688,968.5,229.9688,964.5,233.9688" style="stroke:#181818;stroke-width:1.0;"/><line style="stroke:#181818;stroke-width:1.0;" x1="1261.875" x2="1435.25" y1="217.9688" y2="217.9688"/><line style="stroke:#181818;stroke-width:1.0;" x1="1435.25" x2="1435.25" y1="217.9688" y2="239.9688"/><polygon fill="#181818" points="1431.25,229.9688,1435.25,239.9688,1439.25,229.9688,1435.25,233.9688" style="stroke:#181818;stroke-width:1.0;"/><line style="stroke:#181818;stroke-width:1.0;" x1="964.5" x2="964.5" y1="342.9063" y2="611.8438"/><line style="stroke:#181818;stroke-width:1.0;" x1="964.5" x2="1177.875" y1="611.8438" y2="611.8438"/><polygon fill="#181818" points="1167.875,607.8438,1177.875,611.8438,1167.875,615.8438,1171.875,611.8438" style="stroke:#181818;stroke-width:1.0;"/><line style="stroke:#181818;stroke-width:1.0;" x1="1435.25" x2="1435.25" y1="593.8438" y2="611.8438"/><line style="stroke:#181818;stroke-width:1.0;" x1="1435.25" x2="1201.875" y1="611.8438" y2="611.8438"/><polygon fill="#181818" points="1211.875,607.8438,1201.875,611.8438,1211.875,615.8438,1207.875,611.8438" style="stroke:#181818;stroke-width:1.0;"/><line style="stroke:#181818;stroke-width:1.0;" x1="905.4375" x2="721" y1="183.9688" y2="183.9688"/><line style="stroke:#181818;stroke-width:1.0;" x1="721" x2="721" y1="183.9688" y2="205.9688"/><polygon fill="#181818" points="717,195.9688,721,205.9688,725,195.9688,721,199.9688" style="stroke:#181818;stroke-width:1.0;"/><line style="stroke:#181818;stroke-width:1.0;" x1="1005.4375" x2="1189.875" y1="183.9688" y2="183.9688"/><line style="stroke:#181818;stroke-width:1.0;" x1="1189.875" x2="1189.875" y1="183.9688" y2="205.9688"/><polygon fill="#181818" points="1185.875,195.9688,1189.875,205.9688,1193.875,195.9688,1189.875,199.9688" style="stroke:#181818;stroke-width:1.0;"/><line style="stroke:#181818;stroke-width:1.0;" x1="721" x2="721" y1="377.875" y2="641.8438"/><line style="stroke:#181818;stroke-width:1.0;" x1="721" x2="943.4375" y1="641.8438" y2="641.8438"/><polygon fill="#181818" points="933.4375,637.8438,943.4375,641.8438,933.4375,645.8438,937.4375,641.8438" style="stroke:#181818;stroke-width:1.0;"/><line style="stroke:#181818;stroke-width:1.0;" x1="1189.875" x2="1189.875" y1="623.8438" y2="641.8438"/><line style="stroke:#181818;stroke-width:1.0;" x1="1189.875" x2="967.4375" y1="641.8438" y2="641.8438"/><polygon fill="#181818" points="977.4375,637.8438,967.4375,641.8438,977.4375,645.8438,973.4375,641.8438" style="stroke:#181818;stroke-width:1.0;"/><line style="stroke:#181818;stroke-width:1.0;" x1="638.4688" x2="451.5" y1="149.9688" y2="149.9688"/><line style="stroke:#181818;stroke-width:1.0;" x1="451.5" x2="451.5" y1="149.9688" y2="171.9688"/><polygon fill="#181818" points="447.5,161.9688,451.5,171.9688,455.5,161.9688,451.5,165.9688" style="stroke:#181818;stroke-width:1.0;"/><line style="stroke:#181818;stroke-width:1.0;" x1="768.4688" x2="955.4375" y1="149.9688" y2="149.9688"/><line style="stroke:#181818;stroke-width:1.0;" x1="955.4375" x2="955.4375" y1="149.9688" y2="171.9688"/><polygon fill="#181818" points="951.4375,161.9688,955.4375,171.9688,959.4375,161.9688,955.4375,165.9688" style="stroke:#181818;stroke-width:1.0;"/><line style="stroke:#181818;stroke-width:1.0;" x1="451.5" x2="451.5" y1="343.875" y2="671.8438"/><line style="stroke:#181818;stroke-width:1.0;" x1="451.5" x2="691.4688" y1="671.8438" y2="671.8438"/><polygon fill="#181818" points="681.4688,667.8438,691.4688,671.8438,681.4688,675.8438,685.4688,671.8438" style="stroke:#181818;stroke-width:1.0;"/><line style="stroke:#181818;stroke-width:1.0;" x1="955.4375" x2="955.4375" y1="653.8438" y2="671.8438"/><line style="stroke:#181818;stroke-width:1.0;" x1="955.4375" x2="715.4688" y1="671.8438" y2="671.8438"/><polygon fill="#181818" points="725.4688,667.8438,715.4688,671.8438,725.4688,675.8438,721.4688,671.8438" style="stroke:#181818;stroke-width:1.0;"/><line style="stroke:#181818;stroke-width:1.0;" x1="356.9844" x2="155.5" y1="115.9688" y2="115.9688"/><line style="stroke:#181818;stroke-width:1.0;" x1="155.5" x2="155.5" y1="115.9688" y2="137.9688"/><polygon fill="#181818" points="151.5,127.9688,155.5,137.9688,159.5,127.9688,155.5,131.9688" style="stroke:#181818;stroke-width:1.0;"/><line style="stroke:#181818;stroke-width:1.0;" x1="501.9844" x2="703.4688" y1="115.9688" y2="115.9688"/><line style="stroke:#181818;stroke-width:1.0;" x1="703.4688" x2="703.4688" y1="115.9688" y2="137.9688"/><polygon fill="#181818" points="699.4688,127.9688,703.4688,137.9688,707.4688,127.9688,703.4688,131.9688" style="stroke:#181818;stroke-width:1.0;"/><line style="stroke:#181818;stroke-width:1.0;" x1="155.5" x2="155.5" y1="309.875" y2="701.8438"/><line style="stroke:#181818;stroke-width:1.0;" x1="155.5" x2="417.4844" y1="701.8438" y2="701.8438"/><polygon fill="#181818" points="407.4844,697.8438,417.4844,701.8438,407.4844,705.8438,411.4844,701.8438" style="stroke:#181818;stroke-width:1.0;"/><line style="stroke:#181818;stroke-width:1.0;" x1="703.4688" x2="703.4688" y1="683.8438" y2="701.8438"/><line style="stroke:#181818;stroke-width:1.0;" x1="703.4688" x2="441.4844" y1="701.8438" y2="701.8438"/><polygon fill="#181818" points="451.4844,697.8438,441.4844,701.8438,451.4844,705.8438,447.4844,701.8438" style="stroke:#181818;stroke-width:1.0;"/><line style="stroke:#181818;stroke-width:1.0;" x1="429.4844" x2="429.4844" y1="83.9688" y2="103.9688"/><polygon fill="#181818" points="425.4844,93.9688,429.4844,103.9688,433.4844,93.9688,429.4844,97.9688" style="stroke:#181818;stroke-width:1.0;"/><line style="stroke:#181818;stroke-width:1.0;" x1="429.4844" x2="429.4844" y1="713.8438" y2="733.8438"/><polygon fill="#181818" points="425.4844,723.8438,429.4844,733.8438,433.4844,723.8438,429.4844,727.8438" style="stroke:#181818;stroke-width:1.0;"/><!--SRC=[ZPIxSeCm44Lxlc9BkyWFcCfvj9cCdKUjYCNU6P28Tes7lu-4J7WwTWC8NHsTbGGioaco-M1qG4RGAIqCPv8Zx1iMBDE4SbXz4fvXXwfuUASIuLc9MeCSqS2gGLud09iOXyfPZSp8uF3dX2pfeDEXECAwxVGi2QpCio1tjeGzkXfTEe8Xe_52RKWi1CyqmO8HLiQ6UOFTapNYR07RgYf86J__HEw6dkzk5q1RazFXv2S5rQ60KOJCWTCHnsjb70Qq4sjRbYgyy8fz5K6p7HGSzoZmfPm9g9dTJRy5mtE4UPHl7MsHSJfXHSVEV-msi8j-EzH8DSAh5Sf9Ao5hbaHxV6aDYNNJlKndmUXXXk1-BsDq81DrjZei0soDAXgcPP4xLcqOwW-Vkb0NpzwSVJc3VwCcxXFxwF_cC2Cjy4X5SKN-Jlsb0awi3lYl_G2EBhUkPFZsAg6QuENtu4gwgxOFpkkD5NTVu03oOZBmFn2gIPfHt6IK9qkj_hbxYlTuPR7LBm00]--></g></svg>