<?xml version="1.0" encoding="us-ascii" standalone="no"?><svg xmlns="http://www.w3.org/2000/svg" xmlns:xlink="http://www.w3.org/1999/xlink" contentStyleType="text/css" height="898px" preserveAspectRatio="none" style="width:1288px;height:898px;background:#FFFFFF;" version="1.1" viewBox="0 0 1288 898" width="1288px" zoomAndPan="magnify"><defs/><g><ellipse cx="413.4375" cy="20" fill="#222222" rx="10" ry="10" style="stroke:#222222;stroke-width:1.0;"/><rect fill="#F1F1F1" height="33.9688" rx="12.5" ry="12.5" style="stroke:#181818;stroke-width:0.5;" width="190" x="318.4375" y="50"/><text fill="#000000" font-family="sans-serif" font-size="12" lengthAdjust="spacing" textLength="170" x="328.4375" y="71.1387">Admin interacts with System</text><polygon fill="#F1F1F1" points="352.9375,103.9688,473.9375,103.9688,485.9375,115.9688,473.9375,127.9688,352.9375,127.9688,340.9375,115.9688,352.9375,103.9688" style="stroke:#181818;stroke-width:0.5;"/><text fill="#000000" font-family="sans-serif" font-size="11" lengthAdjust="spacing" textLength="121" x="352.9375" y="119.7769">System Maintenance</text><text fill="#000000" font-family="sans-serif" font-size="11" lengthAdjust="spacing" textLength="21" x="319.9375" y="113.3745">yes</text><rect fill="#F1F1F1" height="33.9688" rx="12.5" ry="12.5" style="stroke:#181818;stroke-width:0.5;" width="265" x="11" y="137.9688"/><text fill="#000000" font-family="sans-serif" font-size="12" lengthAdjust="spacing" textLength="245" x="21" y="159.1074">System processes maintenance request</text><rect fill="#F1F1F1" height="33.9688" rx="12.5" ry="12.5" style="stroke:#181818;stroke-width:0.5;" width="241" x="23" y="206.9375"/><text fill="#000000" font-family="sans-serif" font-size="12" lengthAdjust="spacing" textLength="221" x="33" y="228.0762">System performs maintenance tasks</text><polygon fill="#F1F1F1" points="618.8125,137.9688,720.8125,137.9688,732.8125,149.9688,720.8125,161.9688,618.8125,161.9688,606.8125,149.9688,618.8125,137.9688" style="stroke:#181818;stroke-width:0.5;"/><text fill="#000000" font-family="sans-serif" font-size="11" lengthAdjust="spacing" textLength="102" x="618.8125" y="153.7769">Software Updates</text><text fill="#000000" font-family="sans-serif" font-size="11" lengthAdjust="spacing" textLength="21" x="585.8125" y="147.3745">yes</text><rect fill="#F1F1F1" height="33.9688" rx="12.5" ry="12.5" style="stroke:#181818;stroke-width:0.5;" width="231" x="314.5" y="171.9688"/><text fill="#000000" font-family="sans-serif" font-size="12" lengthAdjust="spacing" textLength="211" x="324.5" y="193.1074">System processes update request</text><rect fill="#F1F1F1" height="33.9688" rx="12.5" ry="12.5" style="stroke:#181818;stroke-width:0.5;" width="248" x="306" y="240.9375"/><text fill="#000000" font-family="sans-serif" font-size="12" lengthAdjust="spacing" textLength="228" x="316" y="262.0762">System updates software with Server</text><polygon fill="#F1F1F1" points="886.1875,171.9688,960.1875,171.9688,972.1875,183.9688,960.1875,195.9688,886.1875,195.9688,874.1875,183.9688,886.1875,171.9688" style="stroke:#181818;stroke-width:0.5;"/><text fill="#000000" font-family="sans-serif" font-size="11" lengthAdjust="spacing" textLength="74" x="886.1875" y="187.7769">User Support</text><text fill="#000000" font-family="sans-serif" font-size="11" lengthAdjust="spacing" textLength="21" x="853.1875" y="181.3745">yes</text><rect fill="#F1F1F1" height="33.9688" rx="12.5" ry="12.5" style="stroke:#181818;stroke-width:0.5;" width="236" x="596.9375" y="205.9688"/><text fill="#000000" font-family="sans-serif" font-size="12" lengthAdjust="spacing" textLength="216" x="606.9375" y="227.1074">System processes support request</text><rect fill="#F1F1F1" height="33.9688" rx="12.5" ry="12.5" style="stroke:#181818;stroke-width:0.5;" width="289" x="570.4375" y="274.9375"/><text fill="#000000" font-family="sans-serif" font-size="12" lengthAdjust="spacing" textLength="269" x="580.4375" y="296.0762">System communicates with User for support</text><rect fill="#F1F1F1" height="33.9688" rx="12.5" ry="12.5" style="stroke:#181818;stroke-width:0.5;" width="189" x="620.4375" y="343.9063"/><text fill="#000000" font-family="sans-serif" font-size="12" lengthAdjust="spacing" textLength="169" x="630.4375" y="365.0449">Helps user based on needs</text><polygon fill="#F1F1F1" points="1077.4375,205.9688,1185.4375,205.9688,1197.4375,217.9688,1185.4375,229.9688,1077.4375,229.9688,1065.4375,217.9688,1077.4375,205.9688" style="stroke:#181818;stroke-width:0.5;"/><text fill="#000000" font-family="sans-serif" font-size="11" lengthAdjust="spacing" textLength="108" x="1077.4375" y="221.7769">Manage Resources</text><text fill="#000000" font-family="sans-serif" font-size="11" lengthAdjust="spacing" textLength="21" x="1044.4375" y="215.3745">yes</text><rect fill="#F1F1F1" height="33.9688" rx="12.5" ry="12.5" style="stroke:#181818;stroke-width:0.5;" width="257" x="900.9375" y="239.9688"/><text fill="#000000" font-family="sans-serif" font-size="12" lengthAdjust="spacing" textLength="237" x="910.9375" y="261.1074">System resource management request</text><rect fill="#F1F1F1" height="33.9688" rx="12.5" ry="12.5" style="stroke:#181818;stroke-width:0.5;" width="280" x="889.4375" y="308.9375"/><text fill="#000000" font-family="sans-serif" font-size="12" lengthAdjust="spacing" textLength="260" x="899.4375" y="330.0762">Resource management with different users</text><rect fill="#F1F1F1" height="33.9688" rx="12.5" ry="12.5" style="stroke:#181818;stroke-width:0.5;" width="88" x="1189.4375" y="239.9688"/><text fill="#000000" font-family="sans-serif" font-size="12" lengthAdjust="spacing" textLength="68" x="1199.4375" y="261.1074">End activity</text><polygon fill="#F1F1F1" points="1131.4375,348.9063,1143.4375,360.9063,1131.4375,372.9063,1119.4375,360.9063,1131.4375,348.9063" style="stroke:#181818;stroke-width:0.5;"/><polygon fill="#F1F1F1" points="923.1875,383.875,935.1875,395.875,923.1875,407.875,911.1875,395.875,923.1875,383.875" style="stroke:#181818;stroke-width:0.5;"/><polygon fill="#F1F1F1" points="669.8125,413.875,681.8125,425.875,669.8125,437.875,657.8125,425.875,669.8125,413.875" style="stroke:#181818;stroke-width:0.5;"/><polygon fill="#F1F1F1" points="413.4375,443.875,425.4375,455.875,413.4375,467.875,401.4375,455.875,413.4375,443.875" style="stroke:#181818;stroke-width:0.5;"/><rect fill="#F1F1F1" height="33.9688" rx="12.5" ry="12.5" style="stroke:#181818;stroke-width:0.5;" width="210" x="308.4375" y="487.875"/><text fill="#000000" font-family="sans-serif" font-size="12" lengthAdjust="spacing" textLength="190" x="318.4375" y="509.0137">Database interacts with System</text><rect fill="#F1F1F1" height="33.9688" rx="12.5" ry="12.5" style="stroke:#181818;stroke-width:0.5;" width="266" x="280.4375" y="590.2461"/><text fill="#000000" font-family="sans-serif" font-size="12" lengthAdjust="spacing" textLength="246" x="290.4375" y="611.3848">System processes data storage request</text><rect fill="#F1F1F1" height="33.9688" rx="12.5" ry="12.5" style="stroke:#181818;stroke-width:0.5;" width="213" x="306.9375" y="659.2148"/><text fill="#000000" font-family="sans-serif" font-size="12" lengthAdjust="spacing" textLength="193" x="316.9375" y="680.3535">System stores data in Database</text><polygon fill="#F1F1F1" points="382.4375,541.8438,444.4375,541.8438,456.4375,553.8438,444.4375,565.8438,382.4375,565.8438,370.4375,553.8438,382.4375,541.8438" style="stroke:#181818;stroke-width:0.5;"/><text fill="#000000" font-family="sans-serif" font-size="11" lengthAdjust="spacing" textLength="21" x="417.4375" y="576.0542">yes</text><text fill="#000000" font-family="sans-serif" font-size="11" lengthAdjust="spacing" textLength="62" x="382.4375" y="557.6519">Store Data</text><polygon fill="#F1F1F1" points="413.4375,713.1836,425.4375,725.1836,413.4375,737.1836,401.4375,725.1836,413.4375,713.1836" style="stroke:#181818;stroke-width:0.5;"/><rect fill="#F1F1F1" height="33.9688" rx="12.5" ry="12.5" style="stroke:#181818;stroke-width:0.5;" width="194" x="316.4375" y="757.1836"/><text fill="#000000" font-family="sans-serif" font-size="12" lengthAdjust="spacing" textLength="174" x="326.4375" y="778.3223">System interacts with Server</text><rect fill="#F1F1F1" height="33.9688" rx="12.5" ry="12.5" style="stroke:#181818;stroke-width:0.5;" width="269" x="278.9375" y="811.1523"/><text fill="#000000" font-family="sans-serif" font-size="12" lengthAdjust="spacing" textLength="249" x="288.9375" y="832.291">Server processes requests from System</text><ellipse cx="413.4375" cy="876.1211" fill="none" rx="11" ry="11" style="stroke:#222222;stroke-width:1.0;"/><ellipse cx="413.4375" cy="876.1211" fill="#222222" rx="6" ry="6" style="stroke:#222222;stroke-width:1.0;"/><line style="stroke:#181818;stroke-width:1.0;" x1="413.4375" x2="413.4375" y1="30" y2="50"/><polygon fill="#181818" points="409.4375,40,413.4375,50,417.4375,40,413.4375,44" style="stroke:#181818;stroke-width:1.0;"/><line style="stroke:#181818;stroke-width:1.0;" x1="143.5" x2="143.5" y1="171.9375" y2="206.9375"/><polygon fill="#181818" points="139.5,196.9375,143.5,206.9375,147.5,196.9375,143.5,200.9375" style="stroke:#181818;stroke-width:1.0;"/><line style="stroke:#181818;stroke-width:1.0;" x1="430" x2="430" y1="205.9375" y2="240.9375"/><polygon fill="#181818" points="426,230.9375,430,240.9375,434,230.9375,430,234.9375" style="stroke:#181818;stroke-width:1.0;"/><line style="stroke:#181818;stroke-width:1.0;" x1="714.9375" x2="714.9375" y1="239.9375" y2="274.9375"/><polygon fill="#181818" points="710.9375,264.9375,714.9375,274.9375,718.9375,264.9375,714.9375,268.9375" style="stroke:#181818;stroke-width:1.0;"/><line style="stroke:#181818;stroke-width:1.0;" x1="714.9375" x2="714.9375" y1="308.9063" y2="343.9063"/><polygon fill="#181818" points="710.9375,333.9063,714.9375,343.9063,718.9375,333.9063,714.9375,337.9063" style="stroke:#181818;stroke-width:1.0;"/><line style="stroke:#181818;stroke-width:1.0;" x1="1029.4375" x2="1029.4375" y1="273.9375" y2="308.9375"/><polygon fill="#181818" points="1025.4375,298.9375,1029.4375,308.9375,1033.4375,298.9375,1029.4375,302.9375" style="stroke:#181818;stroke-width:1.0;"/><line style="stroke:#181818;stroke-width:1.0;" x1="1065.4375" x2="1029.4375" y1="217.9688" y2="217.9688"/><line style="stroke:#181818;stroke-width:1.0;" x1="1029.4375" x2="1029.4375" y1="217.9688" y2="239.9688"/><polygon fill="#181818" points="1025.4375,229.9688,1029.4375,239.9688,1033.4375,229.9688,1029.4375,233.9688" style="stroke:#181818;stroke-width:1.0;"/><line style="stroke:#181818;stroke-width:1.0;" x1="1197.4375" x2="1233.4375" y1="217.9688" y2="217.9688"/><line style="stroke:#181818;stroke-width:1.0;" x1="1233.4375" x2="1233.4375" y1="217.9688" y2="239.9688"/><polygon fill="#181818" points="1229.4375,229.9688,1233.4375,239.9688,1237.4375,229.9688,1233.4375,233.9688" style="stroke:#181818;stroke-width:1.0;"/><line style="stroke:#181818;stroke-width:1.0;" x1="1029.4375" x2="1029.4375" y1="342.9063" y2="360.9063"/><line style="stroke:#181818;stroke-width:1.0;" x1="1029.4375" x2="1119.4375" y1="360.9063" y2="360.9063"/><polygon fill="#181818" points="1109.4375,356.9063,1119.4375,360.9063,1109.4375,364.9063,1113.4375,360.9063" style="stroke:#181818;stroke-width:1.0;"/><line style="stroke:#181818;stroke-width:1.0;" x1="1233.4375" x2="1233.4375" y1="273.9375" y2="360.9063"/><line style="stroke:#181818;stroke-width:1.0;" x1="1233.4375" x2="1143.4375" y1="360.9063" y2="360.9063"/><polygon fill="#181818" points="1153.4375,356.9063,1143.4375,360.9063,1153.4375,364.9063,1149.4375,360.9063" style="stroke:#181818;stroke-width:1.0;"/><line style="stroke:#181818;stroke-width:1.0;" x1="874.1875" x2="714.9375" y1="183.9688" y2="183.9688"/><line style="stroke:#181818;stroke-width:1.0;" x1="714.9375" x2="714.9375" y1="183.9688" y2="205.9688"/><polygon fill="#181818" points="710.9375,195.9688,714.9375,205.9688,718.9375,195.9688,714.9375,199.9688" style="stroke:#181818;stroke-width:1.0;"/><line style="stroke:#181818;stroke-width:1.0;" x1="972.1875" x2="1131.4375" y1="183.9688" y2="183.9688"/><line style="stroke:#181818;stroke-width:1.0;" x1="1131.4375" x2="1131.4375" y1="183.9688" y2="205.9688"/><polygon fill="#181818" points="1127.4375,195.9688,1131.4375,205.9688,1135.4375,195.9688,1131.4375,199.9688" style="stroke:#181818;stroke-width:1.0;"/><line style="stroke:#181818;stroke-width:1.0;" x1="714.9375" x2="714.9375" y1="377.875" y2="395.875"/><line style="stroke:#181818;stroke-width:1.0;" x1="714.9375" x2="911.1875" y1="395.875" y2="395.875"/><polygon fill="#181818" points="901.1875,391.875,911.1875,395.875,901.1875,399.875,905.1875,395.875" style="stroke:#181818;stroke-width:1.0;"/><line style="stroke:#181818;stroke-width:1.0;" x1="1131.4375" x2="1131.4375" y1="372.9063" y2="395.875"/><line style="stroke:#181818;stroke-width:1.0;" x1="1131.4375" x2="935.1875" y1="395.875" y2="395.875"/><polygon fill="#181818" points="945.1875,391.875,935.1875,395.875,945.1875,399.875,941.1875,395.875" style="stroke:#181818;stroke-width:1.0;"/><line style="stroke:#181818;stroke-width:1.0;" x1="606.8125" x2="430" y1="149.9688" y2="149.9688"/><line style="stroke:#181818;stroke-width:1.0;" x1="430" x2="430" y1="149.9688" y2="171.9688"/><polygon fill="#181818" points="426,161.9688,430,171.9688,434,161.9688,430,165.9688" style="stroke:#181818;stroke-width:1.0;"/><line style="stroke:#181818;stroke-width:1.0;" x1="732.8125" x2="923.1875" y1="149.9688" y2="149.9688"/><line style="stroke:#181818;stroke-width:1.0;" x1="923.1875" x2="923.1875" y1="149.9688" y2="171.9688"/><polygon fill="#181818" points="919.1875,161.9688,923.1875,171.9688,927.1875,161.9688,923.1875,165.9688" style="stroke:#181818;stroke-width:1.0;"/><line style="stroke:#181818;stroke-width:1.0;" x1="430" x2="430" y1="274.9063" y2="425.875"/><line style="stroke:#181818;stroke-width:1.0;" x1="430" x2="657.8125" y1="425.875" y2="425.875"/><polygon fill="#181818" points="647.8125,421.875,657.8125,425.875,647.8125,429.875,651.8125,425.875" style="stroke:#181818;stroke-width:1.0;"/><line style="stroke:#181818;stroke-width:1.0;" x1="923.1875" x2="923.1875" y1="407.875" y2="425.875"/><line style="stroke:#181818;stroke-width:1.0;" x1="923.1875" x2="681.8125" y1="425.875" y2="425.875"/><polygon fill="#181818" points="691.8125,421.875,681.8125,425.875,691.8125,429.875,687.8125,425.875" style="stroke:#181818;stroke-width:1.0;"/><line style="stroke:#181818;stroke-width:1.0;" x1="340.9375" x2="143.5" y1="115.9688" y2="115.9688"/><line style="stroke:#181818;stroke-width:1.0;" x1="143.5" x2="143.5" y1="115.9688" y2="137.9688"/><polygon fill="#181818" points="139.5,127.9688,143.5,137.9688,147.5,127.9688,143.5,131.9688" style="stroke:#181818;stroke-width:1.0;"/><line style="stroke:#181818;stroke-width:1.0;" x1="485.9375" x2="669.8125" y1="115.9688" y2="115.9688"/><line style="stroke:#181818;stroke-width:1.0;" x1="669.8125" x2="669.8125" y1="115.9688" y2="137.9688"/><polygon fill="#181818" points="665.8125,127.9688,669.8125,137.9688,673.8125,127.9688,669.8125,131.9688" style="stroke:#181818;stroke-width:1.0;"/><line style="stroke:#181818;stroke-width:1.0;" x1="143.5" x2="143.5" y1="240.9063" y2="455.875"/><line style="stroke:#181818;stroke-width:1.0;" x1="143.5" x2="401.4375" y1="455.875" y2="455.875"/><polygon fill="#181818" points="391.4375,451.875,401.4375,455.875,391.4375,459.875,395.4375,455.875" style="stroke:#181818;stroke-width:1.0;"/><line style="stroke:#181818;stroke-width:1.0;" x1="669.8125" x2="669.8125" y1="437.875" y2="455.875"/><line style="stroke:#181818;stroke-width:1.0;" x1="669.8125" x2="425.4375" y1="455.875" y2="455.875"/><polygon fill="#181818" points="435.4375,451.875,425.4375,455.875,435.4375,459.875,431.4375,455.875" style="stroke:#181818;stroke-width:1.0;"/><line style="stroke:#181818;stroke-width:1.0;" x1="413.4375" x2="413.4375" y1="83.9688" y2="103.9688"/><polygon fill="#181818" points="409.4375,93.9688,413.4375,103.9688,417.4375,93.9688,413.4375,97.9688" style="stroke:#181818;stroke-width:1.0;"/><line style="stroke:#181818;stroke-width:1.0;" x1="413.4375" x2="413.4375" y1="467.875" y2="487.875"/><polygon fill="#181818" points="409.4375,477.875,413.4375,487.875,417.4375,477.875,413.4375,481.875" style="stroke:#181818;stroke-width:1.0;"/><line style="stroke:#181818;stroke-width:1.0;" x1="413.4375" x2="413.4375" y1="624.2148" y2="659.2148"/><polygon fill="#181818" points="409.4375,649.2148,413.4375,659.2148,417.4375,649.2148,413.4375,653.2148" style="stroke:#181818;stroke-width:1.0;"/><line style="stroke:#181818;stroke-width:1.0;" x1="413.4375" x2="413.4375" y1="565.8438" y2="590.2461"/><polygon fill="#181818" points="409.4375,580.2461,413.4375,590.2461,417.4375,580.2461,413.4375,584.2461" style="stroke:#181818;stroke-width:1.0;"/><line style="stroke:#181818;stroke-width:1.0;" x1="456.4375" x2="556.4375" y1="553.8438" y2="553.8438"/><polygon fill="#181818" points="552.4375,631.7148,556.4375,641.7148,560.4375,631.7148,556.4375,635.7148" style="stroke:#181818;stroke-width:1.0;"/><line style="stroke:#181818;stroke-width:1.0;" x1="556.4375" x2="556.4375" y1="553.8438" y2="725.1836"/><line style="stroke:#181818;stroke-width:1.0;" x1="556.4375" x2="425.4375" y1="725.1836" y2="725.1836"/><polygon fill="#181818" points="435.4375,721.1836,425.4375,725.1836,435.4375,729.1836,431.4375,725.1836" style="stroke:#181818;stroke-width:1.0;"/><line style="stroke:#181818;stroke-width:1.0;" x1="413.4375" x2="413.4375" y1="693.1836" y2="713.1836"/><polygon fill="#181818" points="409.4375,703.1836,413.4375,713.1836,417.4375,703.1836,413.4375,707.1836" style="stroke:#181818;stroke-width:1.0;"/><line style="stroke:#181818;stroke-width:1.0;" x1="413.4375" x2="413.4375" y1="521.8438" y2="541.8438"/><polygon fill="#181818" points="409.4375,531.8438,413.4375,541.8438,417.4375,531.8438,413.4375,535.8438" style="stroke:#181818;stroke-width:1.0;"/><line style="stroke:#181818;stroke-width:1.0;" x1="413.4375" x2="413.4375" y1="737.1836" y2="757.1836"/><polygon fill="#181818" points="409.4375,747.1836,413.4375,757.1836,417.4375,747.1836,413.4375,751.1836" style="stroke:#181818;stroke-width:1.0;"/><line style="stroke:#181818;stroke-width:1.0;" x1="413.4375" x2="413.4375" y1="791.1523" y2="811.1523"/><polygon fill="#181818" points="409.4375,801.1523,413.4375,811.1523,417.4375,801.1523,413.4375,805.1523" style="stroke:#181818;stroke-width:1.0;"/><line style="stroke:#181818;stroke-width:1.0;" x1="413.4375" x2="413.4375" y1="845.1211" y2="865.1211"/><polygon fill="#181818" points="409.4375,855.1211,413.4375,865.1211,417.4375,855.1211,413.4375,859.1211" style="stroke:#181818;stroke-width:1.0;"/><!--SRC=[XPB1ReCm38RlUGeVsrU0qwHDsgMNLds03CmQhKcORLhnzdC8K5ZHTe6WVERxuvZ5afZYfVOkW0k2P2jXk3kvmAbdGLyQry0kh-5W4nDig70FSi40knvvRm2AaMWfLiYC3Fx10k5tXopb4aHg8lar9vQ_k3HuPLHq4CT6xfOGpcrjHLrhxPQu6yYbyq7bFGQUVfjFYdH3IkHepkup8y6fQzj8ykJTCdDcr-e7M4Nlk-2g8S4W7WpQXgbohdZ7QwidITiVbh66620Wrfo9EMOEUh31VY8SaMD7rKQJbYbefBJngSfZU0giy7636YBNhccGqcTAnrF98f5MluKQT93SpKa_4q5BpNALt_bfYbShDftrpp6Kg7UMo7_7J-_P0YkVEhCnVsbhmdJs9tivvncvtsd6KIdoOY4S7GmDHJ-dDkffVm00]--></g></svg>