<?xml version="1.0" encoding="us-ascii" standalone="no"?><svg xmlns="http://www.w3.org/2000/svg" xmlns:xlink="http://www.w3.org/1999/xlink" contentStyleType="text/css" height="1347px" preserveAspectRatio="none" style="width:424px;height:1347px;background:#FFFFFF;" version="1.1" viewBox="0 0 424 1347" width="424px" zoomAndPan="magnify"><defs/><g><rect fill="#FFFFFF" height="29.1328" style="stroke:#181818;stroke-width:1.0;" width="10" x="146" y="141.5625"/><rect fill="#FFFFFF" height="29.1328" style="stroke:#181818;stroke-width:1.0;" width="10" x="146" y="258.0938"/><rect fill="#FFFFFF" height="29.1328" style="stroke:#181818;stroke-width:1.0;" width="10" x="146" y="374.625"/><rect fill="#FFFFFF" height="29.1328" style="stroke:#181818;stroke-width:1.0;" width="10" x="146" y="491.1563"/><rect fill="#FFFFFF" height="29.1328" style="stroke:#181818;stroke-width:1.0;" width="10" x="146" y="607.6875"/><rect fill="#FFFFFF" height="29.1328" style="stroke:#181818;stroke-width:1.0;" width="10" x="146" y="724.2188"/><rect fill="#FFFFFF" height="29.1328" style="stroke:#181818;stroke-width:1.0;" width="10" x="146" y="840.75"/><rect fill="#FFFFFF" height="29.1328" style="stroke:#181818;stroke-width:1.0;" width="10" x="146" y="957.2813"/><rect fill="#FFFFFF" height="29.1328" style="stroke:#181818;stroke-width:1.0;" width="10" x="146" y="1073.8125"/><rect fill="#FFFFFF" height="29.1328" style="stroke:#181818;stroke-width:1.0;" width="10" x="146" y="1190.3438"/><rect fill="#FFFFFF" height="87.3984" style="stroke:#181818;stroke-width:1.0;" width="10" x="383" y="112.4297"/><rect fill="#FFFFFF" height="87.3984" style="stroke:#181818;stroke-width:1.0;" width="10" x="383" y="228.9609"/><rect fill="#FFFFFF" height="87.3984" style="stroke:#181818;stroke-width:1.0;" width="10" x="383" y="345.4922"/><rect fill="#FFFFFF" height="87.3984" style="stroke:#181818;stroke-width:1.0;" width="10" x="383" y="462.0234"/><rect fill="#FFFFFF" height="87.3984" style="stroke:#181818;stroke-width:1.0;" width="10" x="383" y="578.5547"/><rect fill="#FFFFFF" height="87.3984" style="stroke:#181818;stroke-width:1.0;" width="10" x="383" y="695.0859"/><rect fill="#FFFFFF" height="87.3984" style="stroke:#181818;stroke-width:1.0;" width="10" x="383" y="811.6172"/><rect fill="#FFFFFF" height="87.3984" style="stroke:#181818;stroke-width:1.0;" width="10" x="383" y="928.1484"/><rect fill="#FFFFFF" height="87.3984" style="stroke:#181818;stroke-width:1.0;" width="10" x="383" y="1044.6797"/><rect fill="#FFFFFF" height="87.3984" style="stroke:#181818;stroke-width:1.0;" width="10" x="383" y="1161.2109"/><line style="stroke:#181818;stroke-width:0.5;stroke-dasharray:5.0,5.0;" x1="23" x2="23" y1="81.2969" y2="1266.6094"/><line style="stroke:#181818;stroke-width:0.5;stroke-dasharray:5.0,5.0;" x1="78" x2="78" y1="81.2969" y2="1266.6094"/><line style="stroke:#181818;stroke-width:0.5;stroke-dasharray:5.0,5.0;" x1="151" x2="151" y1="81.2969" y2="1266.6094"/><line style="stroke:#181818;stroke-width:0.5;stroke-dasharray:5.0,5.0;" x1="387.5" x2="387.5" y1="81.2969" y2="1266.6094"/><text fill="#000000" font-family="sans-serif" font-size="14" lengthAdjust="spacing" textLength="31" x="5" y="77.9951">User</text><ellipse cx="23.5" cy="13.5" fill="#E2E2F0" rx="8" ry="8" style="stroke:#181818;stroke-width:0.5;"/><path d="M23.5,21.5 L23.5,48.5 M10.5,29.5 L36.5,29.5 M23.5,48.5 L10.5,63.5 M23.5,48.5 L36.5,63.5 " fill="none" style="stroke:#181818;stroke-width:0.5;"/><text fill="#000000" font-family="sans-serif" font-size="14" lengthAdjust="spacing" textLength="31" x="5" y="1278.6045">User</text><ellipse cx="23.5" cy="1290.4063" fill="#E2E2F0" rx="8" ry="8" style="stroke:#181818;stroke-width:0.5;"/><path d="M23.5,1298.4063 L23.5,1325.4063 M10.5,1306.4063 L36.5,1306.4063 M23.5,1325.4063 L10.5,1340.4063 M23.5,1325.4063 L36.5,1340.4063 " fill="none" style="stroke:#181818;stroke-width:0.5;"/><text fill="#000000" font-family="sans-serif" font-size="14" lengthAdjust="spacing" textLength="46" x="52" y="77.9951">Admin</text><ellipse cx="78" cy="13.5" fill="#E2E2F0" rx="8" ry="8" style="stroke:#181818;stroke-width:0.5;"/><path d="M78,21.5 L78,48.5 M65,29.5 L91,29.5 M78,48.5 L65,63.5 M78,48.5 L91,63.5 " fill="none" style="stroke:#181818;stroke-width:0.5;"/><text fill="#000000" font-family="sans-serif" font-size="14" lengthAdjust="spacing" textLength="46" x="52" y="1278.6045">Admin</text><ellipse cx="78" cy="1290.4063" fill="#E2E2F0" rx="8" ry="8" style="stroke:#181818;stroke-width:0.5;"/><path d="M78,1298.4063 L78,1325.4063 M65,1306.4063 L91,1306.4063 M78,1325.4063 L65,1340.4063 M78,1325.4063 L91,1340.4063 " fill="none" style="stroke:#181818;stroke-width:0.5;"/><text fill="#000000" font-family="sans-serif" font-size="14" lengthAdjust="spacing" textLength="68" x="114" y="77.9951">Database</text><path d="M133,29 C133,19 151,19 151,19 C151,19 169,19 169,29 L169,55 C169,65 151,65 151,65 C151,65 133,65 133,55 L133,29 " fill="#E2E2F0" style="stroke:#181818;stroke-width:1.5;"/><path d="M133,29 C133,39 151,39 151,39 C151,39 169,39 169,29 " fill="none" style="stroke:#181818;stroke-width:1.5;"/><text fill="#000000" font-family="sans-serif" font-size="14" lengthAdjust="spacing" textLength="68" x="114" y="1278.6045">Database</text><path d="M133,1291.9063 C133,1281.9063 151,1281.9063 151,1281.9063 C151,1281.9063 169,1281.9063 169,1291.9063 L169,1317.9063 C169,1327.9063 151,1327.9063 151,1327.9063 C151,1327.9063 133,1327.9063 133,1317.9063 L133,1291.9063 " fill="#E2E2F0" style="stroke:#181818;stroke-width:1.5;"/><path d="M133,1291.9063 C133,1301.9063 151,1301.9063 151,1301.9063 C151,1301.9063 169,1301.9063 169,1291.9063 " fill="none" style="stroke:#181818;stroke-width:1.5;"/><rect fill="#E2E2F0" height="30.2969" rx="2.5" ry="2.5" style="stroke:#181818;stroke-width:0.5;" width="61" x="357.5" y="50"/><text fill="#000000" font-family="sans-serif" font-size="14" lengthAdjust="spacing" textLength="47" x="364.5" y="69.9951">Server</text><rect fill="#E2E2F0" height="30.2969" rx="2.5" ry="2.5" style="stroke:#181818;stroke-width:0.5;" width="61" x="357.5" y="1265.6094"/><text fill="#000000" font-family="sans-serif" font-size="14" lengthAdjust="spacing" textLength="47" x="364.5" y="1285.6045">Server</text><rect fill="#FFFFFF" height="29.1328" style="stroke:#181818;stroke-width:1.0;" width="10" x="146" y="141.5625"/><rect fill="#FFFFFF" height="29.1328" style="stroke:#181818;stroke-width:1.0;" width="10" x="146" y="258.0938"/><rect fill="#FFFFFF" height="29.1328" style="stroke:#181818;stroke-width:1.0;" width="10" x="146" y="374.625"/><rect fill="#FFFFFF" height="29.1328" style="stroke:#181818;stroke-width:1.0;" width="10" x="146" y="491.1563"/><rect fill="#FFFFFF" height="29.1328" style="stroke:#181818;stroke-width:1.0;" width="10" x="146" y="607.6875"/><rect fill="#FFFFFF" height="29.1328" style="stroke:#181818;stroke-width:1.0;" width="10" x="146" y="724.2188"/><rect fill="#FFFFFF" height="29.1328" style="stroke:#181818;stroke-width:1.0;" width="10" x="146" y="840.75"/><rect fill="#FFFFFF" height="29.1328" style="stroke:#181818;stroke-width:1.0;" width="10" x="146" y="957.2813"/><rect fill="#FFFFFF" height="29.1328" style="stroke:#181818;stroke-width:1.0;" width="10" x="146" y="1073.8125"/><rect fill="#FFFFFF" height="29.1328" style="stroke:#181818;stroke-width:1.0;" width="10" x="146" y="1190.3438"/><rect fill="#FFFFFF" height="87.3984" style="stroke:#181818;stroke-width:1.0;" width="10" x="383" y="112.4297"/><rect fill="#FFFFFF" height="87.3984" style="stroke:#181818;stroke-width:1.0;" width="10" x="383" y="228.9609"/><rect fill="#FFFFFF" height="87.3984" style="stroke:#181818;stroke-width:1.0;" width="10" x="383" y="345.4922"/><rect fill="#FFFFFF" height="87.3984" style="stroke:#181818;stroke-width:1.0;" width="10" x="383" y="462.0234"/><rect fill="#FFFFFF" height="87.3984" style="stroke:#181818;stroke-width:1.0;" width="10" x="383" y="578.5547"/><rect fill="#FFFFFF" height="87.3984" style="stroke:#181818;stroke-width:1.0;" width="10" x="383" y="695.0859"/><rect fill="#FFFFFF" height="87.3984" style="stroke:#181818;stroke-width:1.0;" width="10" x="383" y="811.6172"/><rect fill="#FFFFFF" height="87.3984" style="stroke:#181818;stroke-width:1.0;" width="10" x="383" y="928.1484"/><rect fill="#FFFFFF" height="87.3984" style="stroke:#181818;stroke-width:1.0;" width="10" x="383" y="1044.6797"/><rect fill="#FFFFFF" height="87.3984" style="stroke:#181818;stroke-width:1.0;" width="10" x="383" y="1161.2109"/><polygon fill="#181818" points="371,108.4297,381,112.4297,371,116.4297,375,112.4297" style="stroke:#181818;stroke-width:1.0;"/><line style="stroke:#181818;stroke-width:1.0;" x1="23.5" x2="377" y1="112.4297" y2="112.4297"/><text fill="#000000" font-family="sans-serif" font-size="13" lengthAdjust="spacing" textLength="157" x="30.5" y="107.3638">Request Real-Time Data</text><polygon fill="#181818" points="167,137.5625,157,141.5625,167,145.5625,163,141.5625" style="stroke:#181818;stroke-width:1.0;"/><line style="stroke:#181818;stroke-width:1.0;" x1="161" x2="382" y1="141.5625" y2="141.5625"/><text fill="#000000" font-family="sans-serif" font-size="13" lengthAdjust="spacing" textLength="158" x="173" y="136.4966">Retrieve Real-Time Data</text><polygon fill="#181818" points="371,166.6953,381,170.6953,371,174.6953,375,170.6953" style="stroke:#181818;stroke-width:1.0;"/><line style="stroke:#181818;stroke-width:1.0;stroke-dasharray:2.0,2.0;" x1="151" x2="377" y1="170.6953" y2="170.6953"/><text fill="#000000" font-family="sans-serif" font-size="13" lengthAdjust="spacing" textLength="136" x="158" y="165.6294">Send Real-Time Data</text><polygon fill="#181818" points="34.5,195.8281,24.5,199.8281,34.5,203.8281,30.5,199.8281" style="stroke:#181818;stroke-width:1.0;"/><line style="stroke:#181818;stroke-width:1.0;stroke-dasharray:2.0,2.0;" x1="28.5" x2="387" y1="199.8281" y2="199.8281"/><text fill="#000000" font-family="sans-serif" font-size="13" lengthAdjust="spacing" textLength="152" x="40.5" y="194.7622">Provide Real-Time Data</text><polygon fill="#181818" points="371,224.9609,381,228.9609,371,232.9609,375,228.9609" style="stroke:#181818;stroke-width:1.0;"/><line style="stroke:#181818;stroke-width:1.0;" x1="23.5" x2="377" y1="228.9609" y2="228.9609"/><text fill="#000000" font-family="sans-serif" font-size="13" lengthAdjust="spacing" textLength="119" x="30.5" y="223.895">Control Appliances</text><polygon fill="#181818" points="167,254.0938,157,258.0938,167,262.0938,163,258.0938" style="stroke:#181818;stroke-width:1.0;"/><line style="stroke:#181818;stroke-width:1.0;" x1="161" x2="382" y1="258.0938" y2="258.0938"/><text fill="#000000" font-family="sans-serif" font-size="13" lengthAdjust="spacing" textLength="160" x="173" y="253.0278">Send Control Commands</text><polygon fill="#181818" points="371,283.2266,381,287.2266,371,291.2266,375,287.2266" style="stroke:#181818;stroke-width:1.0;"/><line style="stroke:#181818;stroke-width:1.0;stroke-dasharray:2.0,2.0;" x1="151" x2="377" y1="287.2266" y2="287.2266"/><text fill="#000000" font-family="sans-serif" font-size="13" lengthAdjust="spacing" textLength="179" x="158" y="282.1606">Confirm Control Commands</text><polygon fill="#181818" points="34.5,312.3594,24.5,316.3594,34.5,320.3594,30.5,316.3594" style="stroke:#181818;stroke-width:1.0;"/><line style="stroke:#181818;stroke-width:1.0;stroke-dasharray:2.0,2.0;" x1="28.5" x2="387" y1="316.3594" y2="316.3594"/><text fill="#000000" font-family="sans-serif" font-size="13" lengthAdjust="spacing" textLength="135" x="40.5" y="311.2935">Acknowledge Control</text><polygon fill="#181818" points="371,341.4922,381,345.4922,371,349.4922,375,345.4922" style="stroke:#181818;stroke-width:1.0;"/><line style="stroke:#181818;stroke-width:1.0;" x1="23.5" x2="377" y1="345.4922" y2="345.4922"/><text fill="#000000" font-family="sans-serif" font-size="13" lengthAdjust="spacing" textLength="85" x="30.5" y="340.4263">Set Warnings</text><polygon fill="#181818" points="167,370.625,157,374.625,167,378.625,163,374.625" style="stroke:#181818;stroke-width:1.0;"/><line style="stroke:#181818;stroke-width:1.0;" x1="161" x2="382" y1="374.625" y2="374.625"/><text fill="#000000" font-family="sans-serif" font-size="13" lengthAdjust="spacing" textLength="147" x="173" y="369.5591">Store Warning Settings</text><polygon fill="#181818" points="371,399.7578,381,403.7578,371,407.7578,375,403.7578" style="stroke:#181818;stroke-width:1.0;"/><line style="stroke:#181818;stroke-width:1.0;stroke-dasharray:2.0,2.0;" x1="151" x2="377" y1="403.7578" y2="403.7578"/><text fill="#000000" font-family="sans-serif" font-size="13" lengthAdjust="spacing" textLength="107" x="158" y="398.6919">Confirm Settings</text><polygon fill="#181818" points="34.5,428.8906,24.5,432.8906,34.5,436.8906,30.5,432.8906" style="stroke:#181818;stroke-width:1.0;"/><line style="stroke:#181818;stroke-width:1.0;stroke-dasharray:2.0,2.0;" x1="28.5" x2="387" y1="432.8906" y2="432.8906"/><text fill="#000000" font-family="sans-serif" font-size="13" lengthAdjust="spacing" textLength="141" x="40.5" y="427.8247">Acknowledge Settings</text><polygon fill="#181818" points="371,458.0234,381,462.0234,371,466.0234,375,462.0234" style="stroke:#181818;stroke-width:1.0;"/><line style="stroke:#181818;stroke-width:1.0;" x1="23.5" x2="377" y1="462.0234" y2="462.0234"/><text fill="#000000" font-family="sans-serif" font-size="13" lengthAdjust="spacing" textLength="134" x="30.5" y="456.9575">Receive Notifications</text><polygon fill="#181818" points="167,487.1563,157,491.1563,167,495.1563,163,491.1563" style="stroke:#181818;stroke-width:1.0;"/><line style="stroke:#181818;stroke-width:1.0;" x1="161" x2="382" y1="491.1563" y2="491.1563"/><text fill="#000000" font-family="sans-serif" font-size="13" lengthAdjust="spacing" textLength="151" x="173" y="486.0903">Monitor Real-Time Data</text><polygon fill="#181818" points="371,516.2891,381,520.2891,371,524.2891,375,520.2891" style="stroke:#181818;stroke-width:1.0;"/><line style="stroke:#181818;stroke-width:1.0;stroke-dasharray:2.0,2.0;" x1="151" x2="377" y1="520.2891" y2="520.2891"/><text fill="#000000" font-family="sans-serif" font-size="13" lengthAdjust="spacing" textLength="115" x="158" y="515.2231">Send Notifications</text><polygon fill="#181818" points="34.5,545.4219,24.5,549.4219,34.5,553.4219,30.5,549.4219" style="stroke:#181818;stroke-width:1.0;"/><line style="stroke:#181818;stroke-width:1.0;stroke-dasharray:2.0,2.0;" x1="28.5" x2="387" y1="549.4219" y2="549.4219"/><text fill="#000000" font-family="sans-serif" font-size="13" lengthAdjust="spacing" textLength="128" x="40.5" y="544.356">Deliver Notifications</text><polygon fill="#181818" points="371,574.5547,381,578.5547,371,582.5547,375,578.5547" style="stroke:#181818;stroke-width:1.0;"/><line style="stroke:#181818;stroke-width:1.0;" x1="23.5" x2="377" y1="578.5547" y2="578.5547"/><text fill="#000000" font-family="sans-serif" font-size="13" lengthAdjust="spacing" textLength="102" x="30.5" y="573.4888">Access Analysis</text><polygon fill="#181818" points="167,603.6875,157,607.6875,167,611.6875,163,607.6875" style="stroke:#181818;stroke-width:1.0;"/><line style="stroke:#181818;stroke-width:1.0;" x1="161" x2="382" y1="607.6875" y2="607.6875"/><text fill="#000000" font-family="sans-serif" font-size="13" lengthAdjust="spacing" textLength="146" x="173" y="602.6216">Retrieve Analysis Data</text><polygon fill="#181818" points="371,632.8203,381,636.8203,371,640.8203,375,636.8203" style="stroke:#181818;stroke-width:1.0;"/><line style="stroke:#181818;stroke-width:1.0;stroke-dasharray:2.0,2.0;" x1="151" x2="377" y1="636.8203" y2="636.8203"/><text fill="#000000" font-family="sans-serif" font-size="13" lengthAdjust="spacing" textLength="124" x="158" y="631.7544">Send Analysis Data</text><polygon fill="#181818" points="34.5,661.9531,24.5,665.9531,34.5,669.9531,30.5,665.9531" style="stroke:#181818;stroke-width:1.0;"/><line style="stroke:#181818;stroke-width:1.0;stroke-dasharray:2.0,2.0;" x1="28.5" x2="387" y1="665.9531" y2="665.9531"/><text fill="#000000" font-family="sans-serif" font-size="13" lengthAdjust="spacing" textLength="104" x="40.5" y="660.8872">Display Analysis</text><polygon fill="#181818" points="371,691.0859,381,695.0859,371,699.0859,375,695.0859" style="stroke:#181818;stroke-width:1.0;"/><line style="stroke:#181818;stroke-width:1.0;" x1="23.5" x2="377" y1="695.0859" y2="695.0859"/><text fill="#000000" font-family="sans-serif" font-size="13" lengthAdjust="spacing" textLength="65" x="30.5" y="690.02">Predict Bill</text><polygon fill="#181818" points="167,720.2188,157,724.2188,167,728.2188,163,724.2188" style="stroke:#181818;stroke-width:1.0;"/><line style="stroke:#181818;stroke-width:1.0;" x1="161" x2="382" y1="724.2188" y2="724.2188"/><text fill="#000000" font-family="sans-serif" font-size="13" lengthAdjust="spacing" textLength="133" x="173" y="719.1528">Retrieve Usage Data</text><polygon fill="#181818" points="371,749.3516,381,753.3516,371,757.3516,375,753.3516" style="stroke:#181818;stroke-width:1.0;"/><line style="stroke:#181818;stroke-width:1.0;stroke-dasharray:2.0,2.0;" x1="151" x2="377" y1="753.3516" y2="753.3516"/><text fill="#000000" font-family="sans-serif" font-size="13" lengthAdjust="spacing" textLength="140" x="158" y="748.2856">Perform Bill Prediction</text><polygon fill="#181818" points="34.5,778.4844,24.5,782.4844,34.5,786.4844,30.5,782.4844" style="stroke:#181818;stroke-width:1.0;"/><line style="stroke:#181818;stroke-width:1.0;stroke-dasharray:2.0,2.0;" x1="28.5" x2="387" y1="782.4844" y2="782.4844"/><text fill="#000000" font-family="sans-serif" font-size="13" lengthAdjust="spacing" textLength="132" x="40.5" y="777.4185">Display Predicted Bill</text><polygon fill="#181818" points="371,807.6172,381,811.6172,371,815.6172,375,811.6172" style="stroke:#181818;stroke-width:1.0;"/><line style="stroke:#181818;stroke-width:1.0;" x1="78" x2="377" y1="811.6172" y2="811.6172"/><text fill="#000000" font-family="sans-serif" font-size="13" lengthAdjust="spacing" textLength="190" x="85" y="806.5513">Perform System Maintenance</text><polygon fill="#181818" points="167,836.75,157,840.75,167,844.75,163,840.75" style="stroke:#181818;stroke-width:1.0;"/><line style="stroke:#181818;stroke-width:1.0;" x1="161" x2="382" y1="840.75" y2="840.75"/><text fill="#000000" font-family="sans-serif" font-size="13" lengthAdjust="spacing" textLength="178" x="173" y="835.6841">Perform Maintenance Tasks</text><polygon fill="#181818" points="371,865.8828,381,869.8828,371,873.8828,375,869.8828" style="stroke:#181818;stroke-width:1.0;"/><line style="stroke:#181818;stroke-width:1.0;stroke-dasharray:2.0,2.0;" x1="151" x2="377" y1="869.8828" y2="869.8828"/><text fill="#000000" font-family="sans-serif" font-size="13" lengthAdjust="spacing" textLength="136" x="158" y="864.8169">Confirm Maintenance</text><polygon fill="#181818" points="89,895.0156,79,899.0156,89,903.0156,85,899.0156" style="stroke:#181818;stroke-width:1.0;"/><line style="stroke:#181818;stroke-width:1.0;stroke-dasharray:2.0,2.0;" x1="83" x2="387" y1="899.0156" y2="899.0156"/><text fill="#000000" font-family="sans-serif" font-size="13" lengthAdjust="spacing" textLength="205" x="95" y="893.9497">Report Maintenance Completion</text><polygon fill="#181818" points="371,924.1484,381,928.1484,371,932.1484,375,928.1484" style="stroke:#181818;stroke-width:1.0;"/><line style="stroke:#181818;stroke-width:1.0;" x1="78" x2="377" y1="928.1484" y2="928.1484"/><text fill="#000000" font-family="sans-serif" font-size="13" lengthAdjust="spacing" textLength="169" x="85" y="923.0825">Manage Software Updates</text><polygon fill="#181818" points="167,953.2813,157,957.2813,167,961.2813,163,957.2813" style="stroke:#181818;stroke-width:1.0;"/><line style="stroke:#181818;stroke-width:1.0;" x1="161" x2="382" y1="957.2813" y2="957.2813"/><text fill="#000000" font-family="sans-serif" font-size="13" lengthAdjust="spacing" textLength="108" x="173" y="952.2153">Update Software</text><polygon fill="#181818" points="371,982.4141,381,986.4141,371,990.4141,375,986.4141" style="stroke:#181818;stroke-width:1.0;"/><line style="stroke:#181818;stroke-width:1.0;stroke-dasharray:2.0,2.0;" x1="151" x2="377" y1="986.4141" y2="986.4141"/><text fill="#000000" font-family="sans-serif" font-size="13" lengthAdjust="spacing" textLength="101" x="158" y="981.3481">Confirm Update</text><polygon fill="#181818" points="89,1011.5469,79,1015.5469,89,1019.5469,85,1015.5469" style="stroke:#181818;stroke-width:1.0;"/><line style="stroke:#181818;stroke-width:1.0;stroke-dasharray:2.0,2.0;" x1="83" x2="387" y1="1015.5469" y2="1015.5469"/><text fill="#000000" font-family="sans-serif" font-size="13" lengthAdjust="spacing" textLength="135" x="95" y="1010.481">Acknowledge Update</text><polygon fill="#181818" points="371,1040.6797,381,1044.6797,371,1048.6797,375,1044.6797" style="stroke:#181818;stroke-width:1.0;"/><line style="stroke:#181818;stroke-width:1.0;" x1="78" x2="377" y1="1044.6797" y2="1044.6797"/><text fill="#000000" font-family="sans-serif" font-size="13" lengthAdjust="spacing" textLength="135" x="85" y="1039.6138">Provide User Support</text><polygon fill="#181818" points="167,1069.8125,157,1073.8125,167,1077.8125,163,1073.8125" style="stroke:#181818;stroke-width:1.0;"/><line style="stroke:#181818;stroke-width:1.0;" x1="161" x2="382" y1="1073.8125" y2="1073.8125"/><text fill="#000000" font-family="sans-serif" font-size="13" lengthAdjust="spacing" textLength="154" x="173" y="1068.7466">Communicate with User</text><polygon fill="#181818" points="371,1098.9453,381,1102.9453,371,1106.9453,375,1102.9453" style="stroke:#181818;stroke-width:1.0;"/><line style="stroke:#181818;stroke-width:1.0;stroke-dasharray:2.0,2.0;" x1="151" x2="377" y1="1102.9453" y2="1102.9453"/><text fill="#000000" font-family="sans-serif" font-size="13" lengthAdjust="spacing" textLength="138" x="158" y="1097.8794">Resolve User Support</text><polygon fill="#181818" points="89,1128.0781,79,1132.0781,89,1136.0781,85,1132.0781" style="stroke:#181818;stroke-width:1.0;"/><line style="stroke:#181818;stroke-width:1.0;stroke-dasharray:2.0,2.0;" x1="83" x2="387" y1="1132.0781" y2="1132.0781"/><text fill="#000000" font-family="sans-serif" font-size="13" lengthAdjust="spacing" textLength="173" x="95" y="1127.0122">Provide Support Resolution</text><polygon fill="#181818" points="371,1157.2109,381,1161.2109,371,1165.2109,375,1161.2109" style="stroke:#181818;stroke-width:1.0;"/><line style="stroke:#181818;stroke-width:1.0;" x1="78" x2="377" y1="1161.2109" y2="1161.2109"/><text fill="#000000" font-family="sans-serif" font-size="13" lengthAdjust="spacing" textLength="121" x="85" y="1156.145">Manage Resources</text><polygon fill="#181818" points="167,1186.3438,157,1190.3438,167,1194.3438,163,1190.3438" style="stroke:#181818;stroke-width:1.0;"/><line style="stroke:#181818;stroke-width:1.0;" x1="161" x2="382" y1="1190.3438" y2="1190.3438"/><text fill="#000000" font-family="sans-serif" font-size="13" lengthAdjust="spacing" textLength="174" x="173" y="1185.2778">Manage System Resources</text><polygon fill="#181818" points="371,1215.4766,381,1219.4766,371,1223.4766,375,1219.4766" style="stroke:#181818;stroke-width:1.0;"/><line style="stroke:#181818;stroke-width:1.0;stroke-dasharray:2.0,2.0;" x1="151" x2="377" y1="1219.4766" y2="1219.4766"/><text fill="#000000" font-family="sans-serif" font-size="13" lengthAdjust="spacing" textLength="203" x="158" y="1214.4106">Confirm Resource Management</text><polygon fill="#181818" points="89,1244.6094,79,1248.6094,89,1252.6094,85,1248.6094" style="stroke:#181818;stroke-width:1.0;"/><line style="stroke:#181818;stroke-width:1.0;stroke-dasharray:2.0,2.0;" x1="83" x2="387" y1="1248.6094" y2="1248.6094"/><text fill="#000000" font-family="sans-serif" font-size="13" lengthAdjust="spacing" textLength="237" x="95" y="1243.5435">Acknowledge Resource Management</text><!--SRC=[fPNDRjim383lUGgzG5wWXm9UUqqHr0rsvYmc8ofBcaGxoDjFigqiVrxfxMJ5o2Vo4saA6dP1xIA65GpBIhTaLneOVa14zJejLXu2KqCUBAiQGv-0LSRK-ddw_QJUyLU7aTCJpFg3sX7F6rCFZ8KR7naiksUK0s6Fi-mvaR9Gwul8DLfzYsgyXqleXERadzGsk9uq_eMTatrnbeCpglBU4DW6eqXqoBImBwvjmUeerKpSda9xpujSg-RJkgD1VS2oWqIqHbRV8LYo1w5YwYCiICRv6fKvdhd5Re_8-PPja5BRlJccFJN0vApCSkCivG_cFnhsEgZ8ynKDvJUpw9nerQGEZQgoO4wHuhAFib3B5Qz9cI95R-3q9rM1tJQWfeRLDp9ccTekmc5PwROOzYurQ8vL0gSgB9EREDHZoWyKXq6i7iIjJv6nLHiWosZpv14P5_o2KnyGFnT_c9U1lt0U7F9XUnVuAdAQNDxWxRdDkc_0vZBLRiz7ICDbvzCD9Pouut_Fx5BT4HUQNewXUt2-jDCjDBHrtVbyN2AtV05qDiy1L4VYd-URN6BuZj6P_YQgpBCaF57ZLjtIScQg2zARi_J0sFuFM5az2pZjrwBbVoZk5xkCy6y0]--></g></svg>