<?xml version="1.0" encoding="us-ascii" standalone="no"?><svg xmlns="http://www.w3.org/2000/svg" xmlns:xlink="http://www.w3.org/1999/xlink" contentStyleType="text/css" height="1258px" preserveAspectRatio="none" style="width:474px;height:1258px;background:#FFFFFF;" version="1.1" viewBox="0 0 474 1258" width="474px" zoomAndPan="magnify"><defs/><g><!--cluster Smart Home Energy Management System--><g id="cluster_Smart Home Energy Management System"><rect fill="none" height="1245" rx="2.5" ry="2.5" style="stroke:#181818;stroke-width:1.0;" width="350" x="118" y="7"/><text fill="#000000" font-family="sans-serif" font-size="14" font-weight="bold" lengthAdjust="spacing" textLength="334" x="126" y="21.9951">Smart Home Energy Management System</text></g><g id="elem_View Real-Time Data"><ellipse cx="292.7229" cy="63.0446" fill="#F1F1F1" rx="93.2229" ry="21.0446" style="stroke:#181818;stroke-width:0.5;"/><text fill="#000000" font-family="sans-serif" font-size="14" lengthAdjust="spacing" textLength="149" x="218.2229" y="65.8913">View Real-Time Data</text></g><g id="elem_Control Appliances"><ellipse cx="292.4128" cy="138.9826" fill="#F1F1F1" rx="87.9128" ry="19.9826" style="stroke:#181818;stroke-width:0.5;"/><text fill="#000000" font-family="sans-serif" font-size="14" lengthAdjust="spacing" textLength="137" x="223.9128" y="141.8292">Control Appliances</text></g><g id="elem_Set Warnings"><ellipse cx="292.3049" cy="211.061" fill="#F1F1F1" rx="70.8049" ry="16.561" style="stroke:#181818;stroke-width:0.5;"/><text fill="#000000" font-family="sans-serif" font-size="14" lengthAdjust="spacing" textLength="95" x="241.8049" y="214.8085">Set Warnings</text></g><g id="elem_Receive Notifications"><ellipse cx="292.5118" cy="283.9024" fill="#F1F1F1" rx="95.0118" ry="21.4024" style="stroke:#181818;stroke-width:0.5;"/><text fill="#000000" font-family="sans-serif" font-size="14" lengthAdjust="spacing" textLength="153" x="216.0118" y="286.749">Receive Notifications</text></g><g id="elem_Access Analysis"><ellipse cx="292.5612" cy="358.2122" fill="#F1F1F1" rx="76.5612" ry="17.7122" style="stroke:#181818;stroke-width:0.5;"/><text fill="#000000" font-family="sans-serif" font-size="14" lengthAdjust="spacing" textLength="110" x="234.5612" y="361.9598">Access Analysis</text></g><g id="elem_Predict Bill"><ellipse cx="292.7353" cy="425.8471" fill="#F1F1F1" rx="64.7353" ry="15.3471" style="stroke:#181818;stroke-width:0.5;"/><text fill="#000000" font-family="sans-serif" font-size="14" lengthAdjust="spacing" textLength="78" x="250.7353" y="429.5946">Predict Bill</text></g><g id="elem_Turn Off Appliances"><ellipse cx="292.6144" cy="496.9229" fill="#F1F1F1" rx="90.1144" ry="20.4229" style="stroke:#181818;stroke-width:0.5;"/><text fill="#000000" font-family="sans-serif" font-size="14" lengthAdjust="spacing" textLength="142" x="221.6144" y="499.7696">Turn Off Appliances</text></g><g id="elem_Perform System Maintenance"><ellipse cx="292.6502" cy="579.93" fill="#F1F1F1" rx="122.6502" ry="26.93" style="stroke:#181818;stroke-width:0.5;"/><text fill="#000000" font-family="sans-serif" font-size="14" lengthAdjust="spacing" textLength="213" x="186.1502" y="582.7767">Perform System Maintenance</text></g><g id="elem_Manage Software Updates"><ellipse cx="292.5183" cy="667.0037" fill="#F1F1F1" rx="110.5183" ry="24.5037" style="stroke:#181818;stroke-width:0.5;"/><text fill="#000000" font-family="sans-serif" font-size="14" lengthAdjust="spacing" textLength="187" x="199.0183" y="669.8503">Manage Software Updates</text></g><g id="elem_Provide User Support"><ellipse cx="292.5638" cy="747.8128" fill="#F1F1F1" rx="94.5638" ry="21.3128" style="stroke:#181818;stroke-width:0.5;"/><text fill="#000000" font-family="sans-serif" font-size="14" lengthAdjust="spacing" textLength="152" x="216.5638" y="750.6594">Provide User Support</text></g><g id="elem_Manage Resources"><ellipse cx="292.728" cy="824.0456" fill="#F1F1F1" rx="85.728" ry="19.5456" style="stroke:#181818;stroke-width:0.5;"/><text fill="#000000" font-family="sans-serif" font-size="14" lengthAdjust="spacing" textLength="132" x="226.728" y="826.8923">Manage Resources</text></g><g id="elem_Store Real-Time Data"><ellipse cx="292.4095" cy="900.0819" fill="#F1F1F1" rx="95.9095" ry="21.5819" style="stroke:#181818;stroke-width:0.5;"/><text fill="#000000" font-family="sans-serif" font-size="14" lengthAdjust="spacing" textLength="155" x="214.9095" y="902.9286">Store Real-Time Data</text></g><g id="elem_Retrieve Analysis Data"><ellipse cx="292.6147" cy="979.1229" fill="#F1F1F1" rx="98.6147" ry="22.1229" style="stroke:#181818;stroke-width:0.5;"/><text fill="#000000" font-family="sans-serif" font-size="14" lengthAdjust="spacing" textLength="161" x="212.1147" y="981.9696">Retrieve Analysis Data</text></g><g id="elem_Connect to AWS IoT Cloud"><ellipse cx="292.4811" cy="1061.0962" fill="#F1F1F1" rx="110.9811" ry="24.5962" style="stroke:#181818;stroke-width:0.5;"/><text fill="#000000" font-family="sans-serif" font-size="14" lengthAdjust="spacing" textLength="188" x="198.4811" y="1063.9429">Connect to AWS IoT Cloud</text></g><g id="elem_Allocate Electricity"><ellipse cx="292.4128" cy="1140.9826" fill="#F1F1F1" rx="87.9128" ry="19.9826" style="stroke:#181818;stroke-width:0.5;"/><text fill="#000000" font-family="sans-serif" font-size="14" lengthAdjust="spacing" textLength="137" x="223.9128" y="1143.8292">Allocate Electricity</text></g><g id="elem_Send Notifications"><ellipse cx="292.728" cy="1216.0456" fill="#F1F1F1" rx="85.728" ry="19.5456" style="stroke:#181818;stroke-width:0.5;"/><text fill="#000000" font-family="sans-serif" font-size="14" lengthAdjust="spacing" textLength="132" x="226.728" y="1218.8923">Send Notifications</text></g><!--entity User--><g id="elem_User"><ellipse cx="40" cy="254.5" fill="#F1F1F1" rx="8" ry="8" style="stroke:#181818;stroke-width:0.5;"/><path d="M40,262.5 L40,289.5 M27,270.5 L53,270.5 M40,289.5 L27,304.5 M40,289.5 L53,304.5 " fill="none" style="stroke:#181818;stroke-width:0.5;"/><text fill="#000000" font-family="sans-serif" font-size="14" lengthAdjust="spacing" textLength="31" x="24.5" y="318.9951">User</text></g><!--entity Admin--><g id="elem_Admin"><ellipse cx="40" cy="678.5" fill="#F1F1F1" rx="8" ry="8" style="stroke:#181818;stroke-width:0.5;"/><path d="M40,686.5 L40,713.5 M27,694.5 L53,694.5 M40,713.5 L27,728.5 M40,713.5 L53,728.5 " fill="none" style="stroke:#181818;stroke-width:0.5;"/><text fill="#000000" font-family="sans-serif" font-size="14" lengthAdjust="spacing" textLength="46" x="17" y="742.9951">Admin</text></g><!--entity Database--><g id="elem_Database"><ellipse cx="40" cy="910.5" fill="#F1F1F1" rx="8" ry="8" style="stroke:#181818;stroke-width:0.5;"/><path d="M40,918.5 L40,945.5 M27,926.5 L53,926.5 M40,945.5 L27,960.5 M40,945.5 L53,960.5 " fill="none" style="stroke:#181818;stroke-width:0.5;"/><text fill="#000000" font-family="sans-serif" font-size="14" lengthAdjust="spacing" textLength="68" x="6" y="974.9951">Database</text></g><!--entity Server--><g id="elem_Server"><ellipse cx="40" cy="1111.5" fill="#F1F1F1" rx="8" ry="8" style="stroke:#181818;stroke-width:0.5;"/><path d="M40,1119.5 L40,1146.5 M27,1127.5 L53,1127.5 M40,1146.5 L27,1161.5 M40,1146.5 L53,1161.5 " fill="none" style="stroke:#181818;stroke-width:0.5;"/><text fill="#000000" font-family="sans-serif" font-size="14" lengthAdjust="spacing" textLength="47" x="16.5" y="1175.9951">Server</text></g><!--link User to View Real-Time Data--><g id="link_User_View Real-Time Data"><path d="M44.716,245.64 C50.8893,203.73 67.1936,137.67 110,101 C134.694,79.85 162.2239,70.3767 193.6889,65.5667 " fill="none" id="User-to-View Real-Time Data" style="stroke:#181818;stroke-width:1.0;"/><polygon fill="#181818" points="199.62,64.66,190.1189,62.0659,194.6774,65.4156,191.3278,69.9741,199.62,64.66" style="stroke:#181818;stroke-width:1.0;"/></g><!--link User to Control Appliances--><g id="link_User_Control Appliances"><path d="M55.5664,247.51 C66.9071,223.81 84.9537,194.22 110,177 C137.989,157.76 167.8019,148.8202 200.1569,143.9102 " fill="none" id="User-to-Control Appliances" style="stroke:#181818;stroke-width:1.0;"/><polygon fill="#181818" points="206.089,143.01,196.5907,140.4056,201.1456,143.7602,197.791,148.315,206.089,143.01" style="stroke:#181818;stroke-width:1.0;"/></g><!--link User to Set Warnings--><g id="link_User_Set Warnings"><path d="M55.6518,273.819 C69.1668,264.9 90.0926,252.26 110,245 C147.797,231.21 186.2144,223.6124 221.6164,218.5924 " fill="none" id="User-to-Set Warnings" style="stroke:#181818;stroke-width:1.0;"/><polygon fill="#181818" points="227.557,217.75,218.0846,215.0532,222.6065,218.452,219.2077,222.9739,227.557,217.75" style="stroke:#181818;stroke-width:1.0;"/></g><!--link User to Receive Notifications--><g id="link_User_Receive Notifications"><path d="M55.5507,284 C82.9086,284 138.052,284 191.24,284 " fill="none" id="User-to-Receive Notifications" style="stroke:#181818;stroke-width:1.0;"/><polygon fill="#181818" points="197.24,284,188.24,280,192.24,284,188.24,288,197.24,284" style="stroke:#181818;stroke-width:1.0;"/></g><!--link User to Access Analysis--><g id="link_User_Access Analysis"><path d="M55.661,294.156 C69.1822,303.057 90.112,315.684 110,323 C146.443,336.405 183.0525,344.0532 217.7845,349.3452 " fill="none" id="User-to-Access Analysis" style="stroke:#181818;stroke-width:1.0;"/><polygon fill="#181818" points="223.716,350.249,215.4212,344.939,218.773,349.4959,214.2162,352.8477,223.716,350.249" style="stroke:#181818;stroke-width:1.0;"/></g><!--link User to Predict Bill--><g id="link_User_Predict Bill"><path d="M55.6214,322.174 C66.8486,346.275 84.7437,375.974 110,393 C144.523,416.273 184.8003,424.0355 221.9783,426.4165 " fill="none" id="User-to-Predict Bill" style="stroke:#181818;stroke-width:1.0;"/><polygon fill="#181818" points="227.966,426.8,219.24,422.233,222.9762,426.4804,218.7288,430.2166,227.966,426.8" style="stroke:#181818;stroke-width:1.0;"/></g><!--link User to Turn Off Appliances--><g id="link_User_Turn Off Appliances"><path d="M45.4681,322.178 C52.259,362.356 69.0632,424.463 110,459 C135.591,480.59 164.4042,490.0549 196.6522,494.6979 " fill="none" id="User-to-Turn Off Appliances" style="stroke:#181818;stroke-width:1.0;"/><polygon fill="#181818" points="202.591,495.553,194.2529,490.3112,197.642,494.8405,193.1128,498.2296,202.591,495.553" style="stroke:#181818;stroke-width:1.0;"/></g><!--link Admin to Perform System Maintenance--><g id="link_Admin_Perform System Maintenance"><path d="M63.2043,671.888 C75.1439,655.3 91.2674,636.748 110,625 C133.103,610.511 154.7671,602.149 181.2681,595.486 " fill="none" id="Admin-to-Perform System Maintenance" style="stroke:#181818;stroke-width:1.0;"/><polygon fill="#181818" points="187.087,594.023,177.3833,592.3383,182.2379,595.2422,179.334,600.0968,187.087,594.023" style="stroke:#181818;stroke-width:1.0;"/></g><!--link Admin to Manage Software Updates--><g id="link_Admin_Manage Software Updates"><path d="M63.2302,704.362 C94.4823,699.246 147.2688,690.6071 197.3198,682.4151 " fill="none" id="Admin-to-Manage Software Updates" style="stroke:#181818;stroke-width:1.0;"/><polygon fill="#181818" points="203.241,681.446,193.7131,678.9522,198.3067,682.2536,195.0053,686.8472,203.241,681.446" style="stroke:#181818;stroke-width:1.0;"/></g><!--link Admin to Provide User Support--><g id="link_Admin_Provide User Support"><path d="M63.2302,711.55 C96.8771,716.922 156.4241,726.4309 208.6531,734.7709 " fill="none" id="Admin-to-Provide User Support" style="stroke:#181818;stroke-width:1.0;"/><polygon fill="#181818" points="214.578,735.717,206.3213,730.3479,209.6406,734.9286,205.0599,738.2478,214.578,735.717" style="stroke:#181818;stroke-width:1.0;"/></g><!--link Admin to Manage Resources--><g id="link_Admin_Manage Resources"><path d="M63.0402,742.295 C75.0435,758.265 91.2699,776.102 110,787 C140.019,804.467 171.0799,812.8882 203.8199,817.8202 " fill="none" id="Admin-to-Manage Resources" style="stroke:#181818;stroke-width:1.0;"/><polygon fill="#181818" points="209.753,818.714,201.4493,813.418,204.8088,817.9692,200.2576,821.3287,209.753,818.714" style="stroke:#181818;stroke-width:1.0;"/></g><!--link Database to Store Real-Time Data--><g id="link_Database_Store Real-Time Data"><path d="M74.0061,934.73 C109.412,929.076 160.9601,920.8451 207.9351,913.3441 " fill="none" id="Database-to-Store Real-Time Data" style="stroke:#181818;stroke-width:1.0;"/><polygon fill="#181818" points="213.86,912.398,204.3419,909.8672,208.9226,913.1864,205.6033,917.7671,213.86,912.398" style="stroke:#181818;stroke-width:1.0;"/></g><!--link Database to Retrieve Analysis Data--><g id="link_Database_Retrieve Analysis Data"><path d="M74.0061,945.139 C108.748,950.548 158.8074,958.341 205.2774,965.576 " fill="none" id="Database-to-Retrieve Analysis Data" style="stroke:#181818;stroke-width:1.0;"/><polygon fill="#181818" points="211.206,966.499,202.9285,961.1621,206.2655,965.7298,201.6978,969.0668,211.206,966.499" style="stroke:#181818;stroke-width:1.0;"/></g><!--link Server to Connect to AWS IoT Cloud--><g id="link_Server_Connect to AWS IoT Cloud"><path d="M63.6083,1126.945 C76.7509,1119.274 93.8585,1110.12 110,1104 C140.582,1092.404 169.4256,1084.561 200.2366,1077.745 " fill="none" id="Server-to-Connect to AWS IoT Cloud" style="stroke:#181818;stroke-width:1.0;"/><polygon fill="#181818" points="206.095,1076.449,196.4435,1074.4874,201.213,1077.529,198.1714,1082.2986,206.095,1076.449" style="stroke:#181818;stroke-width:1.0;"/></g><!--link Server to Allocate Electricity--><g id="link_Server_Allocate Electricity"><path d="M63.672,1141 C95.2863,1141 148.37,1141 198.446,1141 " fill="none" id="Server-to-Allocate Electricity" style="stroke:#181818;stroke-width:1.0;"/><polygon fill="#181818" points="204.446,1141,195.446,1137,199.446,1141,195.446,1145,204.446,1141" style="stroke:#181818;stroke-width:1.0;"/></g><!--link Server to Send Notifications--><g id="link_Server_Send Notifications"><path d="M63.7965,1155.846 C76.8588,1163.757 93.8267,1173.055 110,1179 C144.561,1191.7038 178.6009,1199.4281 212.2099,1205.2104 " fill="none" id="Server-to-Send Notifications" style="stroke:#181818;stroke-width:1.0;"/><polygon fill="#181818" points="218.123,1206.2277,209.9315,1200.7596,213.1954,1205.3799,208.5751,1208.6438,218.123,1206.2277" style="stroke:#181818;stroke-width:1.0;"/></g><!--SRC=[RP9DJiD038NtFON5YYvw1QHGa631Zp8jNPk94onDF97Zj8eGTsVIf8X4tNdapnxxFGSg3Io2SlLbKB2IDuwoMg6tgB1lIQSmAsgMANv0mqziQNewqcFYLaCnIXK8RboDQl0KQu978QrwU471YceI0zUtHlKDVA_W_0DiDdTm-y5qWfmmR7QSoeO_rZDW6yKq1iYQ9Z2AftQUTsHmG1MMQf79oHCV2LwZSSaUXnKNIEPJlnOomT2tl4Y-AnNi3UuvX7bcrwd0MrdEXah4MQsfcBICMazR9nrOZ6H0rtDmL0XSBEs4Ih1l2hHnoV_jD1wve746rpLDLBlUAASsTdgPwEBPf5NoZQweFQToCcLAmbracRW4Zfx_6IF9-k6EieE3vxY3ROXTiLvmMGWnYPzE8YHSsRFrIyQH54kVVdu1]--></g></svg>