<?xml version="1.0" encoding="us-ascii" standalone="no"?><svg xmlns="http://www.w3.org/2000/svg" xmlns:xlink="http://www.w3.org/1999/xlink" contentStyleType="text/css" height="1422px" preserveAspectRatio="none" style="width:474px;height:1422px;background:#FFFFFF;" version="1.1" viewBox="0 0 474 1422" width="474px" zoomAndPan="magnify"><defs/><g><!--cluster Smart Home Energy Management System--><g id="cluster_Smart Home Energy Management System"><rect fill="none" height="1409" rx="2.5" ry="2.5" style="stroke:#181818;stroke-width:1.0;" width="350" x="118" y="7"/><text fill="#000000" font-family="sans-serif" font-size="14" font-weight="bold" lengthAdjust="spacing" textLength="334" x="126" y="21.9951">Smart Home Energy Management System</text></g><g id="elem_View Real-Time Data"><ellipse cx="292.7229" cy="63.0446" fill="#F1F1F1" rx="93.2229" ry="21.0446" style="stroke:#181818;stroke-width:0.5;"/><text fill="#000000" font-family="sans-serif" font-size="14" lengthAdjust="spacing" textLength="149" x="218.2229" y="65.8913">View Real-Time Data</text></g><g id="elem_Control Appliances"><ellipse cx="292.4128" cy="138.9826" fill="#F1F1F1" rx="87.9128" ry="19.9826" style="stroke:#181818;stroke-width:0.5;"/><text fill="#000000" font-family="sans-serif" font-size="14" lengthAdjust="spacing" textLength="137" x="223.9128" y="141.8292">Control Appliances</text></g><g id="elem_Set Warnings"><ellipse cx="292.3049" cy="211.061" fill="#F1F1F1" rx="70.8049" ry="16.561" style="stroke:#181818;stroke-width:0.5;"/><text fill="#000000" font-family="sans-serif" font-size="14" lengthAdjust="spacing" textLength="95" x="241.8049" y="214.8085">Set Warnings</text></g><g id="elem_Receive Notifications"><ellipse cx="292.5118" cy="283.9024" fill="#F1F1F1" rx="95.0118" ry="21.4024" style="stroke:#181818;stroke-width:0.5;"/><text fill="#000000" font-family="sans-serif" font-size="14" lengthAdjust="spacing" textLength="153" x="216.0118" y="286.749">Receive Notifications</text></g><g id="elem_Access Analysis"><ellipse cx="292.5612" cy="358.2122" fill="#F1F1F1" rx="76.5612" ry="17.7122" style="stroke:#181818;stroke-width:0.5;"/><text fill="#000000" font-family="sans-serif" font-size="14" lengthAdjust="spacing" textLength="110" x="234.5612" y="361.9598">Access Analysis</text></g><g id="elem_Predict Bill"><ellipse cx="292.7353" cy="425.8471" fill="#F1F1F1" rx="64.7353" ry="15.3471" style="stroke:#181818;stroke-width:0.5;"/><text fill="#000000" font-family="sans-serif" font-size="14" lengthAdjust="spacing" textLength="78" x="250.7353" y="429.5946">Predict Bill</text></g><g id="elem_Turn Off Appliances"><ellipse cx="292.6144" cy="496.9229" fill="#F1F1F1" rx="90.1144" ry="20.4229" style="stroke:#181818;stroke-width:0.5;"/><text fill="#000000" font-family="sans-serif" font-size="14" lengthAdjust="spacing" textLength="142" x="221.6144" y="499.7696">Turn Off Appliances</text></g><g id="elem_Perform System Maintenance"><ellipse cx="292.6502" cy="579.93" fill="#F1F1F1" rx="122.6502" ry="26.93" style="stroke:#181818;stroke-width:0.5;"/><text fill="#000000" font-family="sans-serif" font-size="14" lengthAdjust="spacing" textLength="213" x="186.1502" y="582.7767">Perform System Maintenance</text></g><g id="elem_Retrieve Real-Time Data"><ellipse cx="292.4086" cy="666.0817" fill="#F1F1F1" rx="105.9086" ry="23.5817" style="stroke:#181818;stroke-width:0.5;"/><text fill="#000000" font-family="sans-serif" font-size="14" lengthAdjust="spacing" textLength="177" x="203.9086" y="668.9284">Retrieve Real-Time Data</text></g><g id="elem_Manage Software Updates"><ellipse cx="292.5183" cy="749.0037" fill="#F1F1F1" rx="110.5183" ry="24.5037" style="stroke:#181818;stroke-width:0.5;"/><text fill="#000000" font-family="sans-serif" font-size="14" lengthAdjust="spacing" textLength="187" x="199.0183" y="751.8503">Manage Software Updates</text></g><g id="elem_Provide User Support"><ellipse cx="292.5638" cy="829.8128" fill="#F1F1F1" rx="94.5638" ry="21.3128" style="stroke:#181818;stroke-width:0.5;"/><text fill="#000000" font-family="sans-serif" font-size="14" lengthAdjust="spacing" textLength="152" x="216.5638" y="832.6594">Provide User Support</text></g><g id="elem_Manage Data and Resources"><ellipse cx="292.5602" cy="912.212" fill="#F1F1F1" rx="116.5602" ry="25.712" style="stroke:#181818;stroke-width:0.5;"/><text fill="#000000" font-family="sans-serif" font-size="14" lengthAdjust="spacing" textLength="200" x="192.5602" y="915.0587">Manage Data and Resources</text></g><g id="elem_Store Real-Time Data"><ellipse cx="292.4095" cy="994.0819" fill="#F1F1F1" rx="95.9095" ry="21.5819" style="stroke:#181818;stroke-width:0.5;"/><text fill="#000000" font-family="sans-serif" font-size="14" lengthAdjust="spacing" textLength="155" x="214.9095" y="996.9286">Store Real-Time Data</text></g><g id="elem_Retrieve Analysis Data"><ellipse cx="292.6147" cy="1073.1229" fill="#F1F1F1" rx="98.6147" ry="22.1229" style="stroke:#181818;stroke-width:0.5;"/><text fill="#000000" font-family="sans-serif" font-size="14" lengthAdjust="spacing" textLength="161" x="212.1147" y="1075.9696">Retrieve Analysis Data</text></g><g id="elem_Connection To Cloud"><ellipse cx="292.7229" cy="1151.0446" fill="#F1F1F1" rx="93.2229" ry="21.0446" style="stroke:#181818;stroke-width:0.5;"/><text fill="#000000" font-family="sans-serif" font-size="14" lengthAdjust="spacing" textLength="149" x="218.2229" y="1153.8913">Connection To Cloud</text></g><g id="elem_Allocate Electricity"><ellipse cx="292.4128" cy="1226.9826" fill="#F1F1F1" rx="87.9128" ry="19.9826" style="stroke:#181818;stroke-width:0.5;"/><text fill="#000000" font-family="sans-serif" font-size="14" lengthAdjust="spacing" textLength="137" x="223.9128" y="1229.8292">Allocate Electricity</text></g><g id="elem_Send Notifications"><ellipse cx="292.728" cy="1302.0456" fill="#F1F1F1" rx="85.728" ry="19.5456" style="stroke:#181818;stroke-width:0.5;"/><text fill="#000000" font-family="sans-serif" font-size="14" lengthAdjust="spacing" textLength="132" x="226.728" y="1304.8923">Send Notifications</text></g><g id="elem_Provide Data Analysis"><ellipse cx="292.5118" cy="1377.9024" fill="#F1F1F1" rx="95.0118" ry="21.4024" style="stroke:#181818;stroke-width:0.5;"/><text fill="#000000" font-family="sans-serif" font-size="14" lengthAdjust="spacing" textLength="153" x="216.0118" y="1380.749">Provide Data Analysis</text></g><!--entity User--><g id="elem_User"><ellipse cx="40" cy="254.5" fill="#F1F1F1" rx="8" ry="8" style="stroke:#181818;stroke-width:0.5;"/><path d="M40,262.5 L40,289.5 M27,270.5 L53,270.5 M40,289.5 L27,304.5 M40,289.5 L53,304.5 " fill="none" style="stroke:#181818;stroke-width:0.5;"/><text fill="#000000" font-family="sans-serif" font-size="14" lengthAdjust="spacing" textLength="31" x="24.5" y="318.9951">User</text></g><!--entity Admin--><g id="elem_Admin"><ellipse cx="40" cy="719.5" fill="#F1F1F1" rx="8" ry="8" style="stroke:#181818;stroke-width:0.5;"/><path d="M40,727.5 L40,754.5 M27,735.5 L53,735.5 M40,754.5 L27,769.5 M40,754.5 L53,769.5 " fill="none" style="stroke:#181818;stroke-width:0.5;"/><text fill="#000000" font-family="sans-serif" font-size="14" lengthAdjust="spacing" textLength="46" x="17" y="783.9951">Admin</text></g><!--entity Database--><g id="elem_Database"><ellipse cx="40" cy="1004.5" fill="#F1F1F1" rx="8" ry="8" style="stroke:#181818;stroke-width:0.5;"/><path d="M40,1012.5 L40,1039.5 M27,1020.5 L53,1020.5 M40,1039.5 L27,1054.5 M40,1039.5 L53,1054.5 " fill="none" style="stroke:#181818;stroke-width:0.5;"/><text fill="#000000" font-family="sans-serif" font-size="14" lengthAdjust="spacing" textLength="68" x="6" y="1068.9951">Database</text></g><!--entity Server--><g id="elem_Server"><ellipse cx="40" cy="1235.5" fill="#F1F1F1" rx="8" ry="8" style="stroke:#181818;stroke-width:0.5;"/><path d="M40,1243.5 L40,1270.5 M27,1251.5 L53,1251.5 M40,1270.5 L27,1285.5 M40,1270.5 L53,1285.5 " fill="none" style="stroke:#181818;stroke-width:0.5;"/><text fill="#000000" font-family="sans-serif" font-size="14" lengthAdjust="spacing" textLength="47" x="16.5" y="1299.9951">Server</text></g><!--link User to View Real-Time Data--><g id="link_User_View Real-Time Data"><path d="M44.716,245.64 C50.8893,203.73 67.1936,137.67 110,101 C134.694,79.85 162.2239,70.3767 193.6889,65.5667 " fill="none" id="User-to-View Real-Time Data" style="stroke:#181818;stroke-width:1.0;"/><polygon fill="#181818" points="199.62,64.66,190.1189,62.0659,194.6774,65.4156,191.3278,69.9741,199.62,64.66" style="stroke:#181818;stroke-width:1.0;"/></g><!--link User to Control Appliances--><g id="link_User_Control Appliances"><path d="M55.5664,247.51 C66.9071,223.81 84.9537,194.22 110,177 C137.989,157.76 167.8019,148.8202 200.1569,143.9102 " fill="none" id="User-to-Control Appliances" style="stroke:#181818;stroke-width:1.0;"/><polygon fill="#181818" points="206.089,143.01,196.5907,140.4056,201.1456,143.7602,197.791,148.315,206.089,143.01" style="stroke:#181818;stroke-width:1.0;"/></g><!--link User to Set Warnings--><g id="link_User_Set Warnings"><path d="M55.6518,273.82 C69.1668,264.9 90.0926,252.26 110,245 C147.797,231.21 186.2144,223.6124 221.6164,218.5924 " fill="none" id="User-to-Set Warnings" style="stroke:#181818;stroke-width:1.0;"/><polygon fill="#181818" points="227.557,217.75,218.0846,215.0532,222.6065,218.452,219.2077,222.9739,227.557,217.75" style="stroke:#181818;stroke-width:1.0;"/></g><!--link User to Receive Notifications--><g id="link_User_Receive Notifications"><path d="M55.5507,284 C82.9086,284 138.052,284 191.24,284 " fill="none" id="User-to-Receive Notifications" style="stroke:#181818;stroke-width:1.0;"/><polygon fill="#181818" points="197.24,284,188.24,280,192.24,284,188.24,288,197.24,284" style="stroke:#181818;stroke-width:1.0;"/></g><!--link User to Access Analysis--><g id="link_User_Access Analysis"><path d="M55.661,294.16 C69.1822,303.06 90.112,315.68 110,323 C146.443,336.4 183.0524,344.0566 217.7844,349.3466 " fill="none" id="User-to-Access Analysis" style="stroke:#181818;stroke-width:1.0;"/><polygon fill="#181818" points="223.716,350.25,215.4209,344.9405,218.773,349.4971,214.2163,352.8492,223.716,350.25" style="stroke:#181818;stroke-width:1.0;"/></g><!--link User to Predict Bill--><g id="link_User_Predict Bill"><path d="M55.6214,322.17 C66.8486,346.28 84.7437,375.97 110,393 C144.523,416.27 184.8003,424.0367 221.9783,426.4167 " fill="none" id="User-to-Predict Bill" style="stroke:#181818;stroke-width:1.0;"/><polygon fill="#181818" points="227.966,426.8,219.2399,422.2332,222.9762,426.4806,218.7288,430.2169,227.966,426.8" style="stroke:#181818;stroke-width:1.0;"/></g><!--link User to Turn Off Appliances--><g id="link_User_Turn Off Appliances"><path d="M45.4681,322.18 C52.259,362.36 69.0632,424.46 110,459 C135.591,480.59 164.4042,490.0549 196.6522,494.6979 " fill="none" id="User-to-Turn Off Appliances" style="stroke:#181818;stroke-width:1.0;"/><polygon fill="#181818" points="202.591,495.553,194.2529,490.3112,197.642,494.8405,193.1128,498.2296,202.591,495.553" style="stroke:#181818;stroke-width:1.0;"/></g><!--link Admin to Perform System Maintenance--><g id="link_Admin_Perform System Maintenance"><path d="M52.8852,710.942 C63.5131,683.095 81.823,646.555 110,625 C130.886,609.023 150.9217,600.1749 176.4897,593.4609 " fill="none" id="Admin-to-Perform System Maintenance" style="stroke:#181818;stroke-width:1.0;"/><polygon fill="#181818" points="182.293,591.937,172.5722,590.354,177.457,593.2069,174.6041,598.0917,182.293,591.937" style="stroke:#181818;stroke-width:1.0;"/></g><!--link Admin to Retrieve Real-Time Data--><g id="link_Admin_Retrieve Real-Time Data"><path d="M63.02,733.05 C76.1099,724.233 93.3599,713.733 110,707 C140.096,694.823 168.6586,687.1043 199.3916,680.7423 " fill="none" id="Admin-to-Retrieve Real-Time Data" style="stroke:#181818;stroke-width:1.0;"/><polygon fill="#181818" points="205.267,679.526,195.643,677.4334,200.3708,680.5396,197.2647,685.2674,205.267,679.526" style="stroke:#181818;stroke-width:1.0;"/></g><!--link Admin to Manage Software Updates--><g id="link_Admin_Manage Software Updates"><path d="M63.2302,749 C90.1118,749 131.307,749 175.833,749 " fill="none" id="Admin-to-Manage Software Updates" style="stroke:#181818;stroke-width:1.0;"/><polygon fill="#181818" points="181.833,749,172.833,745,176.833,749,172.833,753,181.833,749" style="stroke:#181818;stroke-width:1.0;"/></g><!--link Admin to Provide User Support--><g id="link_Admin_Provide User Support"><path d="M63.3009,765.224 C76.3443,774.019 93.4551,784.407 110,791 C142.185,803.826 173.4476,811.6524 205.7276,817.6984 " fill="none" id="Admin-to-Provide User Support" style="stroke:#181818;stroke-width:1.0;"/><polygon fill="#181818" points="211.625,818.803,203.5152,813.2145,206.7105,817.8825,202.0424,821.0778,211.625,818.803" style="stroke:#181818;stroke-width:1.0;"/></g><!--link Admin to Manage Data and Resources--><g id="link_Admin_Manage Data and Resources"><path d="M53.5884,787.059 C64.4067,813.909 82.6445,848.599 110,869 C131.805,885.262 153.0094,894.0747 179.4974,900.4657 " fill="none" id="Admin-to-Manage Data and Resources" style="stroke:#181818;stroke-width:1.0;"/><polygon fill="#181818" points="185.33,901.873,177.5193,895.8736,180.4695,900.7003,175.6429,903.6505,185.33,901.873" style="stroke:#181818;stroke-width:1.0;"/></g><!--link Database to Store Real-Time Data--><g id="link_Database_Store Real-Time Data"><path d="M74.0061,1028.73 C109.412,1023.076 160.9601,1014.8451 207.9351,1007.3441 " fill="none" id="Database-to-Store Real-Time Data" style="stroke:#181818;stroke-width:1.0;"/><polygon fill="#181818" points="213.86,1006.398,204.3419,1003.8672,208.9226,1007.1864,205.6033,1011.7671,213.86,1006.398" style="stroke:#181818;stroke-width:1.0;"/></g><!--link Database to Retrieve Analysis Data--><g id="link_Database_Retrieve Analysis Data"><path d="M74.0061,1039.139 C108.748,1044.548 158.8074,1052.341 205.2774,1059.576 " fill="none" id="Database-to-Retrieve Analysis Data" style="stroke:#181818;stroke-width:1.0;"/><polygon fill="#181818" points="211.206,1060.499,202.9285,1055.1621,206.2655,1059.7298,201.6978,1063.0668,211.206,1060.499" style="stroke:#181818;stroke-width:1.0;"/></g><!--link Server to Connection To Cloud--><g id="link_Server_Connection To Cloud"><path d="M63.7341,1232.148 C75.7992,1217.106 91.8751,1200.362 110,1190 C138.819,1173.524 167.9184,1165.0247 199.4724,1159.5167 " fill="none" id="Server-to-Connection To Cloud" style="stroke:#181818;stroke-width:1.0;"/><polygon fill="#181818" points="205.383,1158.485,195.8292,1156.0922,200.4575,1159.3448,197.2049,1163.973,205.383,1158.485" style="stroke:#181818;stroke-width:1.0;"/></g><!--link Server to Allocate Electricity--><g id="link_Server_Allocate Electricity"><path d="M63.672,1261.561 C98.3574,1256.299 160.1759,1246.9219 212.8189,1238.9359 " fill="none" id="Server-to-Allocate Electricity" style="stroke:#181818;stroke-width:1.0;"/><polygon fill="#181818" points="218.751,1238.036,209.2529,1235.4311,213.8076,1238.7859,210.4527,1243.3406,218.751,1238.036" style="stroke:#181818;stroke-width:1.0;"/></g><!--link Server to Send Notifications--><g id="link_Server_Send Notifications"><path d="M63.672,1268.349 C98.7187,1273.525 161.5874,1282.8113 214.4554,1290.6203 " fill="none" id="Server-to-Send Notifications" style="stroke:#181818;stroke-width:1.0;"/><polygon fill="#181818" points="220.391,1291.497,212.0721,1286.2248,215.4447,1290.7664,210.9031,1294.139,220.391,1291.497" style="stroke:#181818;stroke-width:1.0;"/></g><!--link Server to Provide Data Analysis--><g id="link_Server_Provide Data Analysis"><path d="M63.5116,1297.035 C75.6306,1311.971 91.8185,1328.686 110,1339 C138.314,1355.0614 166.631,1363.4618 197.695,1369.0274 " fill="none" id="Server-to-Provide Data Analysis" style="stroke:#181818;stroke-width:1.0;"/><polygon fill="#181818" points="203.601,1370.0855,195.4475,1364.561,198.6794,1369.2037,194.0366,1372.4356,203.601,1370.0855" style="stroke:#181818;stroke-width:1.0;"/></g><!--SRC=[RP9DReD038NtEOMLLRF85IhHj58t_L58shKx66ffy21Z4g6gT-yG80qaEu_yUMo_Pq-vWGLGBhuDCbPona4M2tGM5FOrwH0cMSaon8ze-8Kr3S-Kz12vHLUCKdY2PLgY6Zo7ak19I8iMNb2me9B486rhet89FmiuTO3r-XxkFfYEi2Nqwnt7igx7QW9iWfW63qbLUKPnL4_pAHbyeWfBCSjioH4V25w3SSuEknLdIEBYVpKaWhwjUPPyLyhO6JomzzFChb61jpoV31M9arf3CMaUj1osZZgm64c7hgRWbaoPufZN8bnGlOwGXjoEg0JxAaFhfRXigk706VMJfarL1RNR7tKj02MBNUlGwBZ0QF4WRRJvrbnJwhp0gEB0HR0_aREFqfyPx09iV6YorGn9l0_HfdWyFfBAZgsTCod5eQySlIH64Kuh_Zlx-mS0]--></g></svg>