<?xml version="1.0" encoding="us-ascii" standalone="no"?><svg xmlns="http://www.w3.org/2000/svg" xmlns:xlink="http://www.w3.org/1999/xlink" contentStyleType="text/css" height="1289px" preserveAspectRatio="none" style="width:904px;height:1289px;background:#FFFFFF;" version="1.1" viewBox="0 0 904 1289" width="904px" zoomAndPan="magnify"><defs/><g><!--cluster Smart Home Energy Management System--><g id="cluster_Smart Home Energy Management System"><rect fill="none" height="970.998" rx="2.5" ry="2.5" style="stroke:#181818;stroke-width:1.0;" width="350" x="548" y="97.5"/><text fill="#000000" font-family="sans-serif" font-size="14" font-weight="bold" lengthAdjust="spacing" textLength="334" x="556" y="112.4951">Smart Home Energy Management System</text></g><g id="elem_View Real-Time Data"><ellipse cx="723.2229" cy="290.5426" fill="#F1F1F1" rx="93.2229" ry="21.0446" style="stroke:#181818;stroke-width:0.5;"/><text fill="#000000" font-family="sans-serif" font-size="14" lengthAdjust="spacing" textLength="149" x="648.7229" y="293.3893">View Real-Time Data</text></g><g id="elem_Control Appliances"><ellipse cx="722.9128" cy="366.4806" fill="#F1F1F1" rx="87.9128" ry="19.9826" style="stroke:#181818;stroke-width:0.5;"/><text fill="#000000" font-family="sans-serif" font-size="14" lengthAdjust="spacing" textLength="137" x="654.4128" y="369.3272">Control Appliances</text></g><g id="elem_Set Warnings"><ellipse cx="722.8049" cy="438.559" fill="#F1F1F1" rx="70.8049" ry="16.561" style="stroke:#181818;stroke-width:0.5;"/><text fill="#000000" font-family="sans-serif" font-size="14" lengthAdjust="spacing" textLength="95" x="672.3049" y="442.3065">Set Warnings</text></g><g id="elem_Receive Notifications"><ellipse cx="723.0118" cy="511.4004" fill="#F1F1F1" rx="95.0118" ry="21.4024" style="stroke:#181818;stroke-width:0.5;"/><text fill="#000000" font-family="sans-serif" font-size="14" lengthAdjust="spacing" textLength="153" x="646.5118" y="514.247">Receive Notifications</text></g><g id="elem_Access Analysis"><ellipse cx="723.0612" cy="150.7122" fill="#F1F1F1" rx="76.5612" ry="17.7122" style="stroke:#181818;stroke-width:0.5;"/><text fill="#000000" font-family="sans-serif" font-size="14" lengthAdjust="spacing" textLength="110" x="665.0612" y="154.4598">Access Analysis</text></g><g id="elem_Predict Bill"><ellipse cx="723.2353" cy="218.3471" fill="#F1F1F1" rx="64.7353" ry="15.3471" style="stroke:#181818;stroke-width:0.5;"/><text fill="#000000" font-family="sans-serif" font-size="14" lengthAdjust="spacing" textLength="78" x="681.2353" y="222.0946">Predict Bill</text></g><g id="elem_System Maintenance"><ellipse cx="723.1693" cy="815.6319" fill="#F1F1F1" rx="93.6693" ry="21.1339" style="stroke:#181818;stroke-width:0.5;"/><text fill="#000000" font-family="sans-serif" font-size="14" lengthAdjust="spacing" textLength="150" x="648.1693" y="818.4785">System Maintenance</text></g><g id="elem_Software Updates"><ellipse cx="722.995" cy="890.697" fill="#F1F1F1" rx="83.995" ry="19.199" style="stroke:#181818;stroke-width:0.5;"/><text fill="#000000" font-family="sans-serif" font-size="14" lengthAdjust="spacing" textLength="128" x="658.7335" y="893.6336">Software Updates</text></g><g id="elem_User Support"><ellipse cx="722.9333" cy="961.4847" fill="#F1F1F1" rx="70.4333" ry="16.4867" style="stroke:#181818;stroke-width:0.5;"/><text fill="#000000" font-family="sans-serif" font-size="14" lengthAdjust="spacing" textLength="94" x="672.9333" y="965.2322">User Support</text></g><g id="elem_Manage Resources"><ellipse cx="723.228" cy="1032.5436" fill="#F1F1F1" rx="85.728" ry="19.5456" style="stroke:#181818;stroke-width:0.5;"/><text fill="#000000" font-family="sans-serif" font-size="14" lengthAdjust="spacing" textLength="132" x="657.228" y="1035.3903">Manage Resources</text></g><g id="elem_Store Data"><ellipse cx="723.2353" cy="665.3451" fill="#F1F1F1" rx="64.7353" ry="15.3471" style="stroke:#181818;stroke-width:0.5;"/><text fill="#000000" font-family="sans-serif" font-size="14" lengthAdjust="spacing" textLength="78" x="681.2353" y="669.0926">Store Data</text></g><g id="elem_Retrieve Real-Time Data"><ellipse cx="722.9086" cy="591.5797" fill="#F1F1F1" rx="105.9086" ry="23.5817" style="stroke:#181818;stroke-width:0.5;"/><text fill="#000000" font-family="sans-serif" font-size="14" lengthAdjust="spacing" textLength="177" x="634.4086" y="594.4264">Retrieve Real-Time Data</text></g><g id="elem_Provide Data Analysis"><ellipse cx="723.0118" cy="737.4004" fill="#F1F1F1" rx="95.0118" ry="21.4024" style="stroke:#181818;stroke-width:0.5;"/><text fill="#000000" font-family="sans-serif" font-size="14" lengthAdjust="spacing" textLength="153" x="646.5118" y="740.247">Provide Data Analysis</text></g><!--entity User--><g id="elem_User"><ellipse cx="29" cy="381.998" fill="#F1F1F1" rx="8" ry="8" style="stroke:#181818;stroke-width:0.5;"/><path d="M29,389.998 L29,416.998 M16,397.998 L42,397.998 M29,416.998 L16,431.998 M29,416.998 L42,431.998 " fill="none" style="stroke:#181818;stroke-width:0.5;"/><text fill="#000000" font-family="sans-serif" font-size="14" lengthAdjust="spacing" textLength="31" x="13.5" y="446.4931">User</text></g><!--entity Admin--><g id="elem_Admin"><ellipse cx="29" cy="943.998" fill="#F1F1F1" rx="8" ry="8" style="stroke:#181818;stroke-width:0.5;"/><path d="M29,951.998 L29,978.998 M16,959.998 L42,959.998 M29,978.998 L16,993.998 M29,978.998 L42,993.998 " fill="none" style="stroke:#181818;stroke-width:0.5;"/><text fill="#000000" font-family="sans-serif" font-size="14" lengthAdjust="spacing" textLength="46" x="6" y="1008.4931">Admin</text></g><!--entity Database--><g id="elem_Database"><ellipse cx="723" cy="14" fill="#F1F1F1" rx="8" ry="8" style="stroke:#181818;stroke-width:0.5;"/><path d="M723,22 L723,49 M710,30 L736,30 M723,49 L710,64 M723,49 L736,64 " fill="none" style="stroke:#181818;stroke-width:0.5;"/><text fill="#000000" font-family="sans-serif" font-size="14" lengthAdjust="spacing" textLength="68" x="689" y="78.4951">Database</text></g><!--entity Server--><g id="elem_Server"><ellipse cx="334.5" cy="626.998" fill="#F1F1F1" rx="8" ry="8" style="stroke:#181818;stroke-width:0.5;"/><path d="M334.5,634.998 L334.5,661.998 M321.5,642.998 L347.5,642.998 M334.5,661.998 L321.5,676.998 M334.5,661.998 L347.5,676.998 " fill="none" style="stroke:#181818;stroke-width:0.5;"/><text fill="#000000" font-family="sans-serif" font-size="14" lengthAdjust="spacing" textLength="47" x="311" y="691.4931">Server</text></g><!--link User to View Real-Time Data--><g id="link_User_View Real-Time Data"><path d="M37.2132,373.386 C44.1424,348.176 57.3548,316.857 82,300.498 C171.056,241.387 487.675,265.469 639.555,281.091 " fill="none" id="User-View Real-Time Data" style="stroke:#181818;stroke-width:1.0;"/></g><!--link User to Control Appliances--><g id="link_User_Control Appliances"><path d="M44.5965,378.444 C53.1476,363.352 65.5411,346.982 82,338.498 C179.437,288.276 506.292,332 651.48,354.768 " fill="none" id="User-Control Appliances" style="stroke:#181818;stroke-width:1.0;"/></g><!--link User to Set Warnings--><g id="link_User_Set Warnings"><path d="M44.8351,396.228 C54.485,387.431 67.8686,377.209 82,372.498 C165.906,344.53 192.799,365.935 281,372.498 C421.7,382.969 585.576,411.981 668.319,427.829 " fill="none" id="User-Set Warnings" style="stroke:#181818;stroke-width:1.0;"/></g><!--link User to Receive Notifications--><g id="link_User_Receive Notifications"><path d="M44.7801,410.509 C83.641,408.146 191.833,403.111 281,413.498 C398.267,427.16 424.722,447.018 540,472.498 C577.232,480.728 618.81,489.657 652.816,496.892 " fill="none" id="User-Receive Notifications" style="stroke:#181818;stroke-width:1.0;"/></g><!--link User to Access Analysis--><g id="link_User_Access Analysis"><path d="M34.6044,373.083 C41.7735,320.2 57.3919,229.05 82,207.5 C251.932,58.67 553.478,109.63 672.093,137.43 " fill="none" id="User-Access Analysis" style="stroke:#181818;stroke-width:1.0;"/></g><!--link User to Predict Bill--><g id="link_User_Predict Bill"><path d="M31.4767,373.254 C35.0991,337.06 46.5966,284.257 82,256.498 C170.688,186.96 519.52,203.66 661.448,213.67 " fill="none" id="User-Predict Bill" style="stroke:#181818;stroke-width:1.0;"/></g><!--link Admin to System Maintenance--><g id="link_Admin_System Maintenance"><path d="M52.192,977.811 C96.4128,985.602 198.375,999.53 281,980.498 C405.744,951.765 418.978,896.214 540,854.498 C574.064,842.757 612.981,833.845 646.061,827.525 " fill="none" id="Admin-System Maintenance" style="stroke:#181818;stroke-width:1.0;"/></g><!--link Admin to Software Updates--><g id="link_Admin_Software Updates"><path d="M52.1588,1000.771 C60.5378,1009.052 70.7864,1017.114 82,1021.498 C164.372,1053.705 192.648,1025.538 281,1021.498 C392.906,1016.382 451.967,1076.882 532,998.498 C554.687,976.279 518.559,950.923 540,927.498 C565.145,900.028 604.648,889.813 640.434,886.876 " fill="none" id="Admin-Software Updates" style="stroke:#181818;stroke-width:1.0;"/></g><!--link Admin to User Support--><g id="link_Admin_User Support"><path d="M40.1849,1011.698 C47.9527,1032.707 60.9925,1056.986 82,1069.498 C253.83,1171.8427 383.172,1203.1037 532,1069.498 C544.308,1058.449 528.763,1007.636 540,995.498 C569.044,964.128 617.033,956.176 656.444,955.777 " fill="none" id="Admin-User Support" style="stroke:#181818;stroke-width:1.0;"/></g><!--link Admin to Manage Resources--><g id="link_Admin_Manage Resources"><path d="M35.178,1011.569 C42.7391,1060.802 58.5076,1142.4034 82,1160.4985 C240.45,1282.5449 341.419,1218.1662 532,1157.4985 C601.041,1135.5208 668.727,1080.825 701.527,1051.608 " fill="none" id="Admin-Manage Resources" style="stroke:#181818;stroke-width:1.0;"/></g><!--link Database to Store Data--><g id="link_Database_Store Data"><path d="M688.873,43.06 C628.683,44.37 504.761,56.86 449,134 C386.382,220.63 380.928,532.588 449,614.998 C501.214,678.21 604.404,679.855 668.176,673.749 " fill="none" id="Database-Store Data" style="stroke:#181818;stroke-width:1.0;"/></g><!--link Server to Retrieve Real-Time Data--><g id="link_Server_Retrieve Real-Time Data"><path d="M358.234,652.675 C411.795,643.668 548.136,620.738 637.84,605.652 " fill="none" id="Server-Retrieve Real-Time Data" style="stroke:#181818;stroke-width:1.0;"/></g><!--link Server to Provide Data Analysis--><g id="link_Server_Provide Data Analysis"><path d="M358.234,661.263 C414.869,673.132 564.061,704.399 652.802,722.996 " fill="none" id="Server-Provide Data Analysis" style="stroke:#181818;stroke-width:1.0;"/></g><!--link User to Server--><g id="link_User_Server"><path d="M34.2134,449.653 C39.7599,480.977 52.5562,524.024 82,548.498 C151.119,605.953 204.842,536.766 281,584.498 C294.239,592.796 301.8782,600.7601 310.3022,613.4091 " fill="none" id="User-to-Server" style="stroke:#181818;stroke-width:1.0;"/><polygon fill="#181818" points="313.628,618.403,311.9685,608.695,310.8565,614.2414,305.31,613.1294,313.628,618.403" style="stroke:#181818;stroke-width:1.0;"/><text fill="#000000" font-family="sans-serif" font-size="13" lengthAdjust="spacing" textLength="164" x="99.5" y="544.5649">Requests Real-Time Data</text></g><!--link User to Server--><g id="link_User_Server"><path d="M35.0155,449.522 C42.5832,500.823 58.5712,588.247 82,609.498 C148.351,669.683 193.556,622.048 281,641.498 C290.901,643.701 295.9432,644.9818 305.1562,647.7058 " fill="none" id="User-to-Server-1" style="stroke:#181818;stroke-width:1.0;"/><polygon fill="#181818" points="310.91,649.407,303.4135,643.0193,306.1152,647.9893,301.1452,650.691,310.91,649.407" style="stroke:#181818;stroke-width:1.0;"/><text fill="#000000" font-family="sans-serif" font-size="13" lengthAdjust="spacing" textLength="126" x="118.5" y="605.5649">Controls Appliances</text></g><!--link User to Server--><g id="link_User_Server"><path d="M32.0599,449.717 C36.4134,514.038 49.0172,639.563 82,666.498 C149.014,721.226 257.2364,687.5265 305.3624,668.4445 " fill="none" id="User-to-Server-2" style="stroke:#181818;stroke-width:1.0;"/><polygon fill="#181818" points="310.94,666.233,301.0993,665.8319,306.292,668.0759,304.048,673.2686,310.94,666.233" style="stroke:#181818;stroke-width:1.0;"/><text fill="#000000" font-family="sans-serif" font-size="13" lengthAdjust="spacing" textLength="92" x="135.5" y="662.5649">Sets Warnings</text></g><!--link User to Server--><g id="link_User_Server"><path d="M30.5446,449.649 C32.5062,524.475 41.4504,686.203 82,720.498 C115.765,749.056 241.026,739.41 281,720.498 C292.952,714.844 299.3887,709.708 307.4777,699.401 " fill="none" id="User-to-Server-3" style="stroke:#181818;stroke-width:1.0;"/><polygon fill="#181818" points="311.182,694.681,302.4789,699.2915,308.0951,698.6143,308.7722,704.2305,311.182,694.681" style="stroke:#181818;stroke-width:1.0;"/><text fill="#000000" font-family="sans-serif" font-size="13" lengthAdjust="spacing" textLength="141" x="111" y="716.5649">Receives Notifications</text></g><!--link User to Server--><g id="link_User_Server"><path d="M44.6584,419.107 C54.8835,424.131 68.9766,430.503 82,434.498 C167.926,460.863 214.465,410.071 281,470.498 C322.48,508.171 331.9386,569.85 333.6716,612.352 " fill="none" id="User-to-Server-4" style="stroke:#181818;stroke-width:1.0;"/><polygon fill="#181818" points="333.916,618.347,337.546,609.1915,333.7123,613.3512,329.5527,609.5174,333.916,618.347" style="stroke:#181818;stroke-width:1.0;"/><text fill="#000000" font-family="sans-serif" font-size="13" lengthAdjust="spacing" textLength="117" x="123" y="430.5649">Accesses Analysis</text></g><!--link User to Server--><g id="link_User_Server"><path d="M44.5754,449.055 C53.006,465.866 65.3026,484.368 82,495.498 C156.538,545.186 210.889,471.739 281,527.498 C308.819,549.623 320.7659,583.0013 326.9479,612.4153 " fill="none" id="User-to-Server-5" style="stroke:#181818;stroke-width:1.0;"/><polygon fill="#181818" points="328.182,618.287,330.2454,608.6567,327.1536,613.3939,322.4164,610.3021,328.182,618.287" style="stroke:#181818;stroke-width:1.0;"/><text fill="#000000" font-family="sans-serif" font-size="13" lengthAdjust="spacing" textLength="148" x="107.5" y="491.5649">Requests Bill Prediction</text></g><!--link Admin to Server--><g id="link_Admin_Server"><path d="M52.2297,948.392 C60.7562,940.214 71.0796,931.868 82,926.498 C162.658,886.842 216.133,952.713 281,890.498 C308.719,863.912 323.1252,760.0721 329.3602,700.8081 " fill="none" id="Admin-to-Server" style="stroke:#181818;stroke-width:1.0;"/><polygon fill="#181818" points="329.988,694.841,325.0683,703.3731,329.4649,699.8136,333.0244,704.2101,329.988,694.841" style="stroke:#181818;stroke-width:1.0;"/><text fill="#000000" font-family="sans-serif" font-size="13" lengthAdjust="spacing" textLength="197" x="83" y="886.5649">Performs System Maintenance</text></g><!--link Admin to Server--><g id="link_Admin_Server"><path d="M52.3807,974.852 C107.554,977.686 248.002,981.692 281,951.498 C318.131,917.523 328.8615,772.3622 332.0165,700.5822 " fill="none" id="Admin-to-Server-1" style="stroke:#181818;stroke-width:1.0;"/><polygon fill="#181818" points="332.28,694.588,327.8887,703.4037,332.0604,699.5832,335.8809,703.755,332.28,694.588" style="stroke:#181818;stroke-width:1.0;"/><text fill="#000000" font-family="sans-serif" font-size="13" lengthAdjust="spacing" textLength="176" x="93.5" y="947.5649">Manages Software Updates</text></g><!--link Admin to Server--><g id="link_Admin_Server"><path d="M32.0523,935.416 C36.0994,898.789 47.9003,844.411 82,812.498 C148.584,750.186 210.007,819.737 281,762.498 C302.263,745.355 313.6435,723.085 321.5535,700.193 " fill="none" id="Admin-to-Server-2" style="stroke:#181818;stroke-width:1.0;"/><polygon fill="#181818" points="323.513,694.522,316.793,701.7221,321.8801,699.2478,324.3544,704.3349,323.513,694.522" style="stroke:#181818;stroke-width:1.0;"/><text fill="#000000" font-family="sans-serif" font-size="13" lengthAdjust="spacing" textLength="142" x="110.5" y="758.5649">Provides User Support</text></g><!--link Admin to Server--><g id="link_Admin_Server"><path d="M39.576,935.291 C47.2672,912.631 60.4394,885.328 82,869.498 C154.209,816.484 213.887,896.833 281,837.498 C321.691,801.524 331.3967,742.0911 333.3957,700.5361 " fill="none" id="Admin-to-Server-3" style="stroke:#181818;stroke-width:1.0;"/><polygon fill="#181818" points="333.684,694.543,329.2562,703.3404,333.4438,699.5372,337.2469,703.7248,333.684,694.543" style="stroke:#181818;stroke-width:1.0;"/><text fill="#000000" font-family="sans-serif" font-size="13" lengthAdjust="spacing" textLength="128" x="117.5" y="833.5649">Manages Resources</text></g><!--reverse link Database to Server--><g id="link_Database_Server"><path d="M682.7022,46.853 C640.0722,52.173 573.708,67.58 540,116.5 C525.466,137.59 547.677,557.241 532,577.498 C491.348,630.029 447.667,588.312 388,617.498 C377.495,622.637 366.944,629.954 358.085,636.865 " fill="none" id="Database-backto-Server" style="stroke:#181818;stroke-width:1.0;"/><polygon fill="#181818" points="688.656,46.11,679.2299,43.2553,683.6945,46.7292,680.2206,51.1937,688.656,46.11" style="stroke:#181818;stroke-width:1.0;"/><text fill="#000000" font-family="sans-serif" font-size="13" lengthAdjust="spacing" textLength="76" x="422" y="573.5649">Stores Data</text></g><!--link Server to Database--><g id="link_Server_Database"><path d="M339.482,618.212 C351.531,521.233 396.104,263.22 540,116.5 C580.882,74.81 642.7767,57.3518 683.0727,49.6118 " fill="none" id="Server-to-Database" style="stroke:#181818;stroke-width:1.0;"/><polygon fill="#181818" points="688.965,48.48,679.372,46.2495,684.0548,49.4232,680.8811,54.1059,688.965,48.48" style="stroke:#181818;stroke-width:1.0;"/><text fill="#000000" font-family="sans-serif" font-size="13" lengthAdjust="spacing" textLength="142" x="389" y="124.5669">Retrieves Stored Data</text></g><!--SRC=[VPFBJiD034NtynLMLx3e3o1KgJmaDg2guR4U4ZTOIcQ2xHPLY7zd7ccQq0ff5fEvD_RudgJ1ZO9wOAe_52fYB9MyCyQMwXbU11cim2nkPltXich9fTEqEnpVMRNlLZ0fXuU3M23l-b9vEpCczhAkRZ2SjPOL7doBSE-GwpqyMcThRD4f57jHR6VmRI1VQ3w7YrV2BrYZRURF5DwA_Ix7-grtohw1PTSrP5s9Cf4BL7YpxCZLKs6D9T8EuSahRQYqCOsfOrc6OW9BPvkzq5HRCLPKAjnGqqGXh9nMwfdc29EHKtJnJfTJtM_qopB2IrTPpHS-ggb7iUqwppfLSbGX3F5RxWSDQ-2HQWS8nvJ2we7aaPK9TtWcpf5hnNv7LPP6m_yOqq-_wDrNeSxd5aNbJy5JOmz9HfHEJG6L3ApEDKl0P4hir9UnuH7SF_UE-A1dcVw6GzX7xmfvuxaLEALwnfqH1VCVnESAvvm5ni3_AJbWDsOWVXs03V55yf8133WNmzSHfyxu9Lkh9Fq2]--></g></svg>